<svg width="23" height="18" viewBox="0 0 23 18" fill="none" xmlns="http://www.w3.org/2000/svg">
<path d="M20.9785 0H2.02148C0.90823 0 0 0.907242 0 2.02148V15.498C0 16.6085 0.904188 17.5195 2.02148 17.5195H20.9785C22.089 17.5195 23 16.6153 23 15.498V2.02148C23 0.911016 22.0958 0 20.9785 0ZM20.6994 1.34766L11.5429 10.5042L2.30714 1.34766H20.6994ZM1.34766 15.219V2.29412L7.83792 8.72872L1.34766 15.219ZM2.30058 16.1719L8.79494 9.67752L11.0705 11.9336C11.334 12.1948 11.7591 12.1939 12.0214 11.9315L14.2402 9.71269L20.6994 16.1719H2.30058ZM21.6523 15.2189L15.1932 8.75977L21.6523 2.30054V15.2189Z" fill="#868889"/>
</svg>
