<svg width="376" height="376" viewBox="0 0 376 376" fill="none" xmlns="http://www.w3.org/2000/svg">
<path d="M320.149 103.28H255.778C255.778 103.28 262.162 85.8408 271.983 85.8408C281.805 85.8408 284.888 97.8728 284.888 97.8728C284.888 97.8728 291.513 91.3379 296.957 91.3379C302.402 91.3379 307.132 100.016 307.132 100.016C307.132 100.016 314.825 95.3311 320.149 103.28Z" fill="#EBEBEB"/>
<path d="M263.952 58.4459H233.872C233.872 58.4459 240.595 48.6699 245.904 48.6699C251.213 48.6699 252.77 55.1597 252.77 55.1597C252.77 55.1597 256.53 52.1517 259.966 52.6781C263.403 53.2045 263.952 58.4459 263.952 58.4459Z" fill="#EBEBEB"/>
<path d="M102.708 111.642H44.1199C44.1199 111.642 52.1437 93.7294 60.724 92.6089C69.3044 91.4884 73.4178 105.919 73.4178 105.919C73.4178 105.919 78.9525 100.821 83.3066 100.821C87.6607 100.821 90.992 107.536 90.992 107.536C90.992 107.536 99.7228 102.934 102.708 111.642Z" fill="#EBEBEB"/>
<path d="M163.492 36.3821H123.907C123.907 36.3821 130.675 23.4025 138.09 23.2145C145.504 23.0265 149.37 33.0357 149.37 33.0357C149.37 33.0357 160.815 23.8312 163.492 36.3821Z" fill="#EBEBEB"/>
<path d="M206.296 72.2899H179.585C179.585 72.2899 184.172 63.5291 189.151 63.4088C194.129 63.2885 196.746 70.0339 196.746 70.0339C196.746 70.0339 204.491 63.8224 206.296 72.2899Z" fill="#EBEBEB"/>
<path d="M275.119 114.319H247.754V257.786H275.119V114.319Z" fill="#DBDBDB"/>
<path d="M257.319 118.981H252.003V124.456H257.319V118.981Z" fill="#EBEBEB"/>
<path d="M264.125 118.981H258.808V124.456H264.125V118.981Z" fill="#EBEBEB"/>
<path d="M257.319 128.284H252.003V133.759H257.319V128.284Z" fill="#EBEBEB"/>
<path d="M264.125 128.284H258.808V133.759H264.125V128.284Z" fill="#EBEBEB"/>
<path d="M257.319 137.586H252.003V143.06H257.319V137.586Z" fill="#EBEBEB"/>
<path d="M264.125 137.586H258.808V143.06H264.125V137.586Z" fill="#EBEBEB"/>
<path d="M257.319 146.881H252.003V152.355H257.319V146.881Z" fill="#EBEBEB"/>
<path d="M264.125 146.881H258.808V152.355H264.125V146.881Z" fill="#EBEBEB"/>
<path d="M257.319 156.183H252.003V161.657H257.319V156.183Z" fill="#EBEBEB"/>
<path d="M264.125 156.183H258.808V161.657H264.125V156.183Z" fill="#EBEBEB"/>
<path d="M257.319 165.485H252.003V170.96H257.319V165.485Z" fill="#EBEBEB"/>
<path d="M264.125 165.485H258.808V170.96H264.125V165.485Z" fill="#EBEBEB"/>
<path d="M257.319 174.788H252.003V180.263H257.319V174.788Z" fill="#EBEBEB"/>
<path d="M264.125 174.788H258.808V180.263H264.125V174.788Z" fill="#EBEBEB"/>
<path d="M257.319 184.082H252.003V189.557H257.319V184.082Z" fill="#EBEBEB"/>
<path d="M264.125 184.082H258.808V189.557H264.125V184.082Z" fill="#EBEBEB"/>
<path d="M257.319 193.385H252.003V198.859H257.319V193.385Z" fill="#EBEBEB"/>
<path d="M264.125 193.385H258.808V198.859H264.125V193.385Z" fill="#EBEBEB"/>
<path d="M257.319 202.687H252.003V208.161H257.319V202.687Z" fill="#EBEBEB"/>
<path d="M264.125 202.687H258.808V208.161H264.125V202.687Z" fill="#EBEBEB"/>
<path d="M257.319 211.981H252.003V217.456H257.319V211.981Z" fill="#EBEBEB"/>
<path d="M264.125 211.981H258.808V217.456H264.125V211.981Z" fill="#EBEBEB"/>
<path d="M257.319 221.284H252.003V226.759H257.319V221.284Z" fill="#EBEBEB"/>
<path d="M264.125 221.284H258.808V226.759H264.125V221.284Z" fill="#EBEBEB"/>
<path d="M257.319 230.586H252.003V236.06H257.319V230.586Z" fill="#EBEBEB"/>
<path d="M264.125 230.586H258.808V236.06H264.125V230.586Z" fill="#EBEBEB"/>
<path d="M257.319 239.889H252.003V245.363H257.319V239.889Z" fill="#EBEBEB"/>
<path d="M265.554 245.363H270.87V239.889H265.554V245.363Z" fill="#EBEBEB"/>
<path d="M265.554 236.061H270.87V230.586H265.554V236.061Z" fill="#EBEBEB"/>
<path d="M265.554 226.766H270.87V221.291H265.554V226.766Z" fill="#EBEBEB"/>
<path d="M265.554 217.464H270.87V211.989H265.554V217.464Z" fill="#EBEBEB"/>
<path d="M265.554 208.161H270.87V202.687H265.554V208.161Z" fill="#EBEBEB"/>
<path d="M265.554 198.859H270.87V193.385H265.554V198.859Z" fill="#EBEBEB"/>
<path d="M265.554 189.564H270.87V184.09H265.554V189.564Z" fill="#EBEBEB"/>
<path d="M265.554 180.255H270.87V174.78H265.554V180.255Z" fill="#EBEBEB"/>
<path d="M265.554 170.96H270.87V165.485H265.554V170.96Z" fill="#EBEBEB"/>
<path d="M265.554 161.665H270.87V156.19H265.554V161.665Z" fill="#EBEBEB"/>
<path d="M265.554 152.363H270.87V146.889H265.554V152.363Z" fill="#EBEBEB"/>
<path d="M265.554 143.061H270.87V137.586H265.554V143.061Z" fill="#EBEBEB"/>
<path d="M265.554 133.759H270.87V128.284H265.554V133.759Z" fill="#EBEBEB"/>
<path d="M265.554 124.464H270.87V118.989H265.554V124.464Z" fill="#EBEBEB"/>
<path d="M264.125 239.889H258.808V245.363H264.125V239.889Z" fill="#EBEBEB"/>
<path d="M296.694 114.319H275.119V257.786H296.694V114.319Z" fill="#A6A6A6"/>
<path d="M290.076 245.363H294.468V239.889H290.076V245.363Z" fill="#C7C7C7"/>
<path d="M284.466 245.363H288.858V239.889H284.466V245.363Z" fill="#C7C7C7"/>
<path d="M290.076 236.061H294.468V230.586H290.076V236.061Z" fill="#C7C7C7"/>
<path d="M284.466 236.061H288.858V230.586H284.466V236.061Z" fill="#C7C7C7"/>
<path d="M290.076 226.766H294.468V221.291H290.076V226.766Z" fill="#C7C7C7"/>
<path d="M284.466 226.766H288.858V221.291H284.466V226.766Z" fill="#C7C7C7"/>
<path d="M290.076 217.464H294.468V211.989H290.076V217.464Z" fill="#C7C7C7"/>
<path d="M284.466 217.464H288.858V211.989H284.466V217.464Z" fill="#C7C7C7"/>
<path d="M290.076 208.161H294.468V202.687H290.076V208.161Z" fill="#C7C7C7"/>
<path d="M284.466 208.161H288.858V202.687H284.466V208.161Z" fill="#C7C7C7"/>
<path d="M290.076 198.859H294.468V193.385H290.076V198.859Z" fill="#C7C7C7"/>
<path d="M284.466 198.859H288.858V193.385H284.466V198.859Z" fill="#C7C7C7"/>
<path d="M290.076 189.564H294.468V184.09H290.076V189.564Z" fill="#C7C7C7"/>
<path d="M284.466 189.564H288.858V184.09H284.466V189.564Z" fill="#C7C7C7"/>
<path d="M290.076 180.255H294.468V174.78H290.076V180.255Z" fill="#C7C7C7"/>
<path d="M284.466 180.255H288.858V174.78H284.466V180.255Z" fill="#C7C7C7"/>
<path d="M290.076 170.96H294.468V165.485H290.076V170.96Z" fill="#C7C7C7"/>
<path d="M284.466 170.96H288.858V165.485H284.466V170.96Z" fill="#C7C7C7"/>
<path d="M290.076 161.665H294.468V156.19H290.076V161.665Z" fill="#C7C7C7"/>
<path d="M284.466 161.665H288.858V156.19H284.466V161.665Z" fill="#C7C7C7"/>
<path d="M290.076 152.363H294.468V146.889H290.076V152.363Z" fill="#C7C7C7"/>
<path d="M284.466 152.363H288.858V146.889H284.466V152.363Z" fill="#C7C7C7"/>
<path d="M290.076 143.061H294.468V137.586H290.076V143.061Z" fill="#C7C7C7"/>
<path d="M284.466 143.061H288.858V137.586H284.466V143.061Z" fill="#C7C7C7"/>
<path d="M290.076 133.759H294.468V128.284H290.076V133.759Z" fill="#C7C7C7"/>
<path d="M284.466 133.759H288.858V128.284H284.466V133.759Z" fill="#C7C7C7"/>
<path d="M290.076 124.464H294.468V118.989H290.076V124.464Z" fill="#C7C7C7"/>
<path d="M283.278 118.981H278.887V124.456H283.278V118.981Z" fill="#C7C7C7"/>
<path d="M283.278 128.284H278.887V133.759H283.278V128.284Z" fill="#C7C7C7"/>
<path d="M283.278 137.586H278.887V143.06H283.278V137.586Z" fill="#C7C7C7"/>
<path d="M283.278 146.881H278.887V152.355H283.278V146.881Z" fill="#C7C7C7"/>
<path d="M283.278 156.183H278.887V161.657H283.278V156.183Z" fill="#C7C7C7"/>
<path d="M283.278 165.485H278.887V170.96H283.278V165.485Z" fill="#C7C7C7"/>
<path d="M283.278 174.788H278.887V180.263H283.278V174.788Z" fill="#C7C7C7"/>
<path d="M283.278 184.082H278.887V189.557H283.278V184.082Z" fill="#C7C7C7"/>
<path d="M283.278 193.385H278.887V198.859H283.278V193.385Z" fill="#C7C7C7"/>
<path d="M283.278 202.687H278.887V208.161H283.278V202.687Z" fill="#C7C7C7"/>
<path d="M283.278 211.981H278.887V217.456H283.278V211.981Z" fill="#C7C7C7"/>
<path d="M283.278 221.284H278.887V226.759H283.278V221.284Z" fill="#C7C7C7"/>
<path d="M283.278 230.586H278.887V236.06H283.278V230.586Z" fill="#C7C7C7"/>
<path d="M283.278 239.889H278.887V245.363H283.278V239.889Z" fill="#C7C7C7"/>
<path d="M284.466 124.464H288.858V118.989H284.466V124.464Z" fill="#C7C7C7"/>
<path d="M106.649 106.589H74.2749V257.786H106.649V106.589Z" fill="#EBEBEB"/>
<path d="M106.649 103.28H73.4929V106.589H106.649V103.28Z" fill="#C7C7C7"/>
<path d="M80.479 111.47H77.2003V257.794H80.479V111.47Z" fill="white"/>
<path d="M86.2845 111.47H83.0057V257.794H86.2845V111.47Z" fill="white"/>
<path d="M92.0976 111.47H88.8188V257.794H92.0976V111.47Z" fill="white"/>
<path d="M97.9104 111.47H94.6317V257.794H97.9104V111.47Z" fill="white"/>
<path d="M103.716 111.47H100.437V257.794H103.716V111.47Z" fill="white"/>
<path d="M80.479 115.65H77.2003V122.185H80.479V115.65Z" fill="#EBEBEB"/>
<path d="M86.2845 115.65H83.0057V122.185H86.2845V115.65Z" fill="#EBEBEB"/>
<path d="M92.0976 115.65H88.8188V122.185H92.0976V115.65Z" fill="#EBEBEB"/>
<path d="M97.9104 115.65H94.6317V122.185H97.9104V115.65Z" fill="#EBEBEB"/>
<path d="M103.716 115.65H100.437V122.185H103.716V115.65Z" fill="#EBEBEB"/>
<path d="M80.479 126.269H77.2003V132.803H80.479V126.269Z" fill="#EBEBEB"/>
<path d="M86.2845 126.269H83.0057V132.803H86.2845V126.269Z" fill="#EBEBEB"/>
<path d="M92.0976 126.269H88.8188V132.803H92.0976V126.269Z" fill="#EBEBEB"/>
<path d="M97.9104 126.269H94.6317V132.803H97.9104V126.269Z" fill="#EBEBEB"/>
<path d="M103.716 126.269H100.437V132.803H103.716V126.269Z" fill="#EBEBEB"/>
<path d="M80.479 136.887H77.2003V143.422H80.479V136.887Z" fill="#EBEBEB"/>
<path d="M86.2845 136.887H83.0057V143.422H86.2845V136.887Z" fill="#EBEBEB"/>
<path d="M92.0976 136.887H88.8188V143.422H92.0976V136.887Z" fill="#EBEBEB"/>
<path d="M97.9104 136.887H94.6317V143.422H97.9104V136.887Z" fill="#EBEBEB"/>
<path d="M103.716 136.887H100.437V143.422H103.716V136.887Z" fill="#EBEBEB"/>
<path d="M80.479 147.513H77.2003V154.048H80.479V147.513Z" fill="#EBEBEB"/>
<path d="M86.2845 147.513H83.0057V154.048H86.2845V147.513Z" fill="#EBEBEB"/>
<path d="M92.0976 147.513H88.8188V154.048H92.0976V147.513Z" fill="#EBEBEB"/>
<path d="M97.9104 147.513H94.6317V154.048H97.9104V147.513Z" fill="#EBEBEB"/>
<path d="M103.716 147.513H100.437V154.048H103.716V147.513Z" fill="#EBEBEB"/>
<path d="M80.479 158.131H77.2003V164.666H80.479V158.131Z" fill="#EBEBEB"/>
<path d="M86.2845 158.131H83.0057V164.666H86.2845V158.131Z" fill="#EBEBEB"/>
<path d="M92.0976 158.131H88.8188V164.666H92.0976V158.131Z" fill="#EBEBEB"/>
<path d="M97.9104 158.131H94.6317V164.666H97.9104V158.131Z" fill="#EBEBEB"/>
<path d="M103.716 158.131H100.437V164.666H103.716V158.131Z" fill="#EBEBEB"/>
<path d="M80.479 168.749H77.2003V175.284H80.479V168.749Z" fill="#EBEBEB"/>
<path d="M86.2845 168.749H83.0057V175.284H86.2845V168.749Z" fill="#EBEBEB"/>
<path d="M92.0976 168.749H88.8188V175.284H92.0976V168.749Z" fill="#EBEBEB"/>
<path d="M97.9104 168.749H94.6317V175.284H97.9104V168.749Z" fill="#EBEBEB"/>
<path d="M103.716 168.749H100.437V175.284H103.716V168.749Z" fill="#EBEBEB"/>
<path d="M80.479 179.367H77.2003V185.902H80.479V179.367Z" fill="#EBEBEB"/>
<path d="M86.2845 179.367H83.0057V185.902H86.2845V179.367Z" fill="#EBEBEB"/>
<path d="M92.0976 179.367H88.8188V185.902H92.0976V179.367Z" fill="#EBEBEB"/>
<path d="M97.9104 179.367H94.6317V185.902H97.9104V179.367Z" fill="#EBEBEB"/>
<path d="M103.716 179.367H100.437V185.902H103.716V179.367Z" fill="#EBEBEB"/>
<path d="M80.479 189.993H77.2003V196.528H80.479V189.993Z" fill="#EBEBEB"/>
<path d="M86.2845 189.993H83.0057V196.528H86.2845V189.993Z" fill="#EBEBEB"/>
<path d="M92.0976 189.993H88.8188V196.528H92.0976V189.993Z" fill="#EBEBEB"/>
<path d="M97.9104 189.993H94.6317V196.528H97.9104V189.993Z" fill="#EBEBEB"/>
<path d="M103.716 189.993H100.437V196.528H103.716V189.993Z" fill="#EBEBEB"/>
<path d="M80.479 200.611H77.2003V207.146H80.479V200.611Z" fill="#EBEBEB"/>
<path d="M86.2845 200.611H83.0057V207.146H86.2845V200.611Z" fill="#EBEBEB"/>
<path d="M92.0976 200.611H88.8188V207.146H92.0976V200.611Z" fill="#EBEBEB"/>
<path d="M97.9104 200.611H94.6317V207.146H97.9104V200.611Z" fill="#EBEBEB"/>
<path d="M103.716 200.611H100.437V207.146H103.716V200.611Z" fill="#EBEBEB"/>
<path d="M80.479 211.229H77.2003V217.764H80.479V211.229Z" fill="#EBEBEB"/>
<path d="M86.2845 211.229H83.0057V217.764H86.2845V211.229Z" fill="#EBEBEB"/>
<path d="M92.0976 211.229H88.8188V217.764H92.0976V211.229Z" fill="#EBEBEB"/>
<path d="M97.9104 211.229H94.6317V217.764H97.9104V211.229Z" fill="#EBEBEB"/>
<path d="M103.716 211.229H100.437V217.764H103.716V211.229Z" fill="#EBEBEB"/>
<path d="M80.479 221.855H77.2003V228.39H80.479V221.855Z" fill="#EBEBEB"/>
<path d="M86.2845 221.855H83.0057V228.39H86.2845V221.855Z" fill="#EBEBEB"/>
<path d="M92.0976 221.855H88.8188V228.39H92.0976V221.855Z" fill="#EBEBEB"/>
<path d="M97.9104 221.855H94.6317V228.39H97.9104V221.855Z" fill="#EBEBEB"/>
<path d="M103.716 221.855H100.437V228.39H103.716V221.855Z" fill="#EBEBEB"/>
<path d="M80.479 232.474H77.2003V239.008H80.479V232.474Z" fill="#EBEBEB"/>
<path d="M86.2845 232.474H83.0057V239.008H86.2845V232.474Z" fill="#EBEBEB"/>
<path d="M92.0976 232.474H88.8188V239.008H92.0976V232.474Z" fill="#EBEBEB"/>
<path d="M97.9104 232.474H94.6317V239.008H97.9104V232.474Z" fill="#EBEBEB"/>
<path d="M103.716 232.474H100.437V239.008H103.716V232.474Z" fill="#EBEBEB"/>
<path d="M80.479 243.092H77.2003V249.627H80.479V243.092Z" fill="#EBEBEB"/>
<path d="M86.2845 243.092H83.0057V249.627H86.2845V243.092Z" fill="#EBEBEB"/>
<path d="M92.0976 243.092H88.8188V249.627H92.0976V243.092Z" fill="#EBEBEB"/>
<path d="M97.9104 243.092H94.6317V249.627H97.9104V243.092Z" fill="#EBEBEB"/>
<path d="M103.716 243.092H100.437V249.627H103.716V243.092Z" fill="#EBEBEB"/>
<path d="M80.479 253.71H77.2003V257.786H80.479V253.71Z" fill="#EBEBEB"/>
<path d="M86.2845 253.71H83.0057V257.786H86.2845V253.71Z" fill="#EBEBEB"/>
<path d="M92.0976 253.71H88.8188V257.786H92.0976V253.71Z" fill="#EBEBEB"/>
<path d="M97.9104 253.71H94.6317V257.786H97.9104V253.71Z" fill="#EBEBEB"/>
<path d="M103.716 253.71H100.437V257.786H103.716V253.71Z" fill="#EBEBEB"/>
<path d="M127.434 106.589H106.648V257.786H127.434V106.589Z" fill="#DBDBDB"/>
<path d="M128.336 103.28H106.648V106.589H128.336V103.28Z" fill="#C7C7C7"/>
<path d="M112.853 111.47H109.574V257.794H112.853V111.47Z" fill="#C7C7C7"/>
<path d="M118.666 111.47H115.387V257.794H118.666V111.47Z" fill="#C7C7C7"/>
<path d="M124.479 111.47H121.2V257.794H124.479V111.47Z" fill="#C7C7C7"/>
<path d="M112.853 115.65H109.574V122.185H112.853V115.65Z" fill="#DBDBDB"/>
<path d="M118.666 115.65H115.387V122.185H118.666V115.65Z" fill="#DBDBDB"/>
<path d="M124.479 115.65H121.2V122.185H124.479V115.65Z" fill="#DBDBDB"/>
<path d="M112.853 126.269H109.574V132.803H112.853V126.269Z" fill="#DBDBDB"/>
<path d="M118.666 126.269H115.387V132.803H118.666V126.269Z" fill="#DBDBDB"/>
<path d="M124.479 126.269H121.2V132.803H124.479V126.269Z" fill="#DBDBDB"/>
<path d="M112.853 136.887H109.574V143.422H112.853V136.887Z" fill="#DBDBDB"/>
<path d="M118.666 136.887H115.387V143.422H118.666V136.887Z" fill="#DBDBDB"/>
<path d="M124.479 136.887H121.2V143.422H124.479V136.887Z" fill="#DBDBDB"/>
<path d="M112.853 147.513H109.574V154.048H112.853V147.513Z" fill="#DBDBDB"/>
<path d="M118.666 147.513H115.387V154.048H118.666V147.513Z" fill="#DBDBDB"/>
<path d="M124.479 147.513H121.2V154.048H124.479V147.513Z" fill="#DBDBDB"/>
<path d="M112.853 158.131H109.574V164.666H112.853V158.131Z" fill="#DBDBDB"/>
<path d="M118.666 158.131H115.387V164.666H118.666V158.131Z" fill="#DBDBDB"/>
<path d="M124.479 158.131H121.2V164.666H124.479V158.131Z" fill="#DBDBDB"/>
<path d="M112.853 168.749H109.574V175.284H112.853V168.749Z" fill="#DBDBDB"/>
<path d="M118.666 168.749H115.387V175.284H118.666V168.749Z" fill="#DBDBDB"/>
<path d="M124.479 168.749H121.2V175.284H124.479V168.749Z" fill="#DBDBDB"/>
<path d="M112.853 179.367H109.574V185.902H112.853V179.367Z" fill="#DBDBDB"/>
<path d="M118.666 179.367H115.387V185.902H118.666V179.367Z" fill="#DBDBDB"/>
<path d="M124.479 179.367H121.2V185.902H124.479V179.367Z" fill="#DBDBDB"/>
<path d="M112.853 189.993H109.574V196.528H112.853V189.993Z" fill="#DBDBDB"/>
<path d="M118.666 189.993H115.387V196.528H118.666V189.993Z" fill="#DBDBDB"/>
<path d="M124.479 189.993H121.2V196.528H124.479V189.993Z" fill="#DBDBDB"/>
<path d="M112.853 200.611H109.574V207.146H112.853V200.611Z" fill="#DBDBDB"/>
<path d="M118.666 200.611H115.387V207.146H118.666V200.611Z" fill="#DBDBDB"/>
<path d="M124.479 200.611H121.2V207.146H124.479V200.611Z" fill="#DBDBDB"/>
<path d="M112.853 211.229H109.574V217.764H112.853V211.229Z" fill="#DBDBDB"/>
<path d="M118.666 211.229H115.387V217.764H118.666V211.229Z" fill="#DBDBDB"/>
<path d="M124.479 211.229H121.2V217.764H124.479V211.229Z" fill="#DBDBDB"/>
<path d="M112.853 221.855H109.574V228.39H112.853V221.855Z" fill="#DBDBDB"/>
<path d="M118.666 221.855H115.387V228.39H118.666V221.855Z" fill="#DBDBDB"/>
<path d="M124.479 221.855H121.2V228.39H124.479V221.855Z" fill="#DBDBDB"/>
<path d="M112.853 232.474H109.574V239.008H112.853V232.474Z" fill="#DBDBDB"/>
<path d="M118.666 232.474H115.387V239.008H118.666V232.474Z" fill="#DBDBDB"/>
<path d="M124.479 232.474H121.2V239.008H124.479V232.474Z" fill="#DBDBDB"/>
<path d="M112.853 243.092H109.574V249.627H112.853V243.092Z" fill="#DBDBDB"/>
<path d="M118.666 243.092H115.387V249.627H118.666V243.092Z" fill="#DBDBDB"/>
<path d="M124.479 243.092H121.2V249.627H124.479V243.092Z" fill="#DBDBDB"/>
<path d="M112.853 253.71H109.574V257.786H112.853V253.71Z" fill="#DBDBDB"/>
<path d="M118.666 253.71H115.387V257.786H118.666V253.71Z" fill="#DBDBDB"/>
<path d="M124.479 253.71H121.2V257.786H124.479V253.71Z" fill="#DBDBDB"/>
<path d="M65.8676 162.154H33.6294V257.786H65.8676V162.154Z" fill="#EBEBEB"/>
<path d="M65.86 154.048H38.209V162.154H65.86V154.048Z" fill="#C7C7C7"/>
<path d="M62.3333 166.388H37.1638V257.786H62.3333V166.388Z" fill="#DBDBDB"/>
<path d="M62.3333 175.111H37.1638V177.27H62.3333V175.111Z" fill="white"/>
<path d="M62.3333 184.053H37.1638V186.211H62.3333V184.053Z" fill="white"/>
<path d="M62.3333 193.001H37.1638V195.159H62.3333V193.001Z" fill="white"/>
<path d="M62.3333 201.95H37.1638V204.108H62.3333V201.95Z" fill="white"/>
<path d="M62.3333 210.891H37.1638V213.049H62.3333V210.891Z" fill="white"/>
<path d="M62.3333 219.84H37.1638V221.998H62.3333V219.84Z" fill="white"/>
<path d="M62.3333 228.789H37.1638V230.947H62.3333V228.789Z" fill="white"/>
<path d="M62.3333 237.729H37.1638V239.888H62.3333V237.729Z" fill="white"/>
<path d="M62.3333 246.679H37.1638V248.837H62.3333V246.679Z" fill="white"/>
<path d="M62.3333 255.628H37.1638V257.786H62.3333V255.628Z" fill="white"/>
<path d="M86.0589 162.154H65.8677V257.786H86.0589V162.154Z" fill="#DBDBDB"/>
<path d="M83.0283 154.048H65.8677V162.154H83.0283V154.048Z" fill="#A6A6A6"/>
<path d="M84.1787 166.388H68.6499V257.786H84.1787V166.388Z" fill="#C7C7C7"/>
<path d="M84.1787 175.111H68.6499V177.27H84.1787V175.111Z" fill="white"/>
<path d="M84.1787 184.053H68.6499V186.211H84.1787V184.053Z" fill="white"/>
<path d="M84.1787 193.001H68.6499V195.159H84.1787V193.001Z" fill="white"/>
<path d="M84.1787 201.95H68.6499V204.108H84.1787V201.95Z" fill="white"/>
<path d="M84.1787 210.891H68.6499V213.049H84.1787V210.891Z" fill="white"/>
<path d="M84.1787 219.84H68.6499V221.998H84.1787V219.84Z" fill="white"/>
<path d="M84.1787 228.789H68.6499V230.947H84.1787V228.789Z" fill="white"/>
<path d="M84.1787 237.729H68.6499V239.888H84.1787V237.729Z" fill="white"/>
<path d="M84.1787 246.679H68.6499V248.837H84.1787V246.679Z" fill="white"/>
<path d="M84.1787 255.628H68.6499V257.786H84.1787V255.628Z" fill="white"/>
<path d="M147.603 201.8H122.681V257.786H147.603V201.8Z" fill="#DBDBDB"/>
<path d="M131.006 206.649H126.599V210.079H131.006V206.649Z" fill="#C7C7C7"/>
<path d="M131.006 213.975H126.599V217.404H131.006V213.975Z" fill="#C7C7C7"/>
<path d="M131.006 221.299H126.599V224.728H131.006V221.299Z" fill="#C7C7C7"/>
<path d="M131.006 228.623H126.599V232.052H131.006V228.623Z" fill="#C7C7C7"/>
<path d="M131.006 235.955H126.599V239.384H131.006V235.955Z" fill="#C7C7C7"/>
<path d="M131.006 243.28H126.599V246.709H131.006V243.28Z" fill="#C7C7C7"/>
<path d="M131.006 250.604H126.599V254.034H131.006V250.604Z" fill="#C7C7C7"/>
<path d="M137.36 206.649H132.946V210.079H137.36V206.649Z" fill="#C7C7C7"/>
<path d="M137.36 213.975H132.946V217.404H137.36V213.975Z" fill="#C7C7C7"/>
<path d="M137.36 221.299H132.946V224.728H137.36V221.299Z" fill="#C7C7C7"/>
<path d="M137.36 228.623H132.946V232.052H137.36V228.623Z" fill="#C7C7C7"/>
<path d="M137.36 235.955H132.946V239.384H137.36V235.955Z" fill="#C7C7C7"/>
<path d="M137.36 243.28H132.946V246.709H137.36V243.28Z" fill="#C7C7C7"/>
<path d="M137.36 250.604H132.946V254.034H137.36V250.604Z" fill="#C7C7C7"/>
<path d="M143.692 206.649H139.278V210.079H143.692V206.649Z" fill="#C7C7C7"/>
<path d="M143.692 213.975H139.278V217.404H143.692V213.975Z" fill="#C7C7C7"/>
<path d="M143.692 221.299H139.278V224.728H143.692V221.299Z" fill="#C7C7C7"/>
<path d="M143.692 228.623H139.278V232.052H143.692V228.623Z" fill="#C7C7C7"/>
<path d="M143.692 235.955H139.278V239.384H143.692V235.955Z" fill="#C7C7C7"/>
<path d="M143.692 243.28H139.278V246.709H143.692V243.28Z" fill="#C7C7C7"/>
<path d="M143.692 250.604H139.278V254.034H143.692V250.604Z" fill="#C7C7C7"/>
<path d="M165.087 201.8H147.603V257.786H165.087V201.8Z" fill="#A6A6A6"/>
<path d="M159.717 253.492H163.304V250.063H159.717V253.492Z" fill="#C7C7C7"/>
<path d="M159.717 246.16H163.304V242.731H159.717V246.16Z" fill="#C7C7C7"/>
<path d="M159.717 238.836H163.304V235.407H159.717V238.836Z" fill="#C7C7C7"/>
<path d="M159.717 231.504H163.304V228.075H159.717V231.504Z" fill="#C7C7C7"/>
<path d="M159.717 224.187H163.304V220.757H159.717V224.187Z" fill="#C7C7C7"/>
<path d="M159.717 216.854H163.304V213.425H159.717V216.854Z" fill="#C7C7C7"/>
<path d="M159.717 209.53H163.304V206.101H159.717V209.53Z" fill="#C7C7C7"/>
<path d="M154.551 253.492H158.138V250.063H154.551V253.492Z" fill="#C7C7C7"/>
<path d="M154.551 246.16H158.138V242.731H154.551V246.16Z" fill="#C7C7C7"/>
<path d="M154.551 238.836H158.138V235.407H154.551V238.836Z" fill="#C7C7C7"/>
<path d="M154.551 231.504H158.138V228.075H154.551V231.504Z" fill="#C7C7C7"/>
<path d="M154.551 224.187H158.138V220.757H154.551V224.187Z" fill="#C7C7C7"/>
<path d="M154.551 216.854H158.138V213.425H154.551V216.854Z" fill="#C7C7C7"/>
<path d="M154.551 209.53H158.138V206.101H154.551V209.53Z" fill="#C7C7C7"/>
<path d="M149.4 253.492H152.987V250.063H149.4V253.492Z" fill="#C7C7C7"/>
<path d="M149.4 246.16H152.987V242.731H149.4V246.16Z" fill="#C7C7C7"/>
<path d="M149.4 238.836H152.987V235.407H149.4V238.836Z" fill="#C7C7C7"/>
<path d="M149.4 231.504H152.987V228.075H149.4V231.504Z" fill="#C7C7C7"/>
<path d="M149.4 224.187H152.987V220.757H149.4V224.187Z" fill="#C7C7C7"/>
<path d="M149.4 216.854H152.987V213.425H149.4V216.854Z" fill="#C7C7C7"/>
<path d="M149.4 209.53H152.987V206.101H149.4V209.53Z" fill="#C7C7C7"/>
<path d="M315.795 137.586H298.574V157.928H315.795V137.586Z" fill="#DBDBDB"/>
<path d="M326.714 137.586H315.795V158.672H326.714V137.586Z" fill="#C7C7C7"/>
<path d="M327.436 146.564H316.599V158.672H327.436V146.564Z" fill="#DBDBDB"/>
<path d="M334.196 146.564H327.436V158.672H334.196V146.564Z" fill="#C7C7C7"/>
<path d="M319.81 156.597H291.971V257.786H319.81V156.597Z" fill="#EBEBEB"/>
<path d="M303.906 160.951H295.152V164.531H303.906V160.951Z" fill="white"/>
<path d="M315.103 160.951H306.35V164.531H315.103V160.951Z" fill="white"/>
<path d="M303.906 167.027H295.152V170.607H303.906V167.027Z" fill="white"/>
<path d="M315.103 167.027H306.35V170.607H315.103V167.027Z" fill="white"/>
<path d="M303.906 173.096H295.152V176.675H303.906V173.096Z" fill="white"/>
<path d="M315.103 173.096H306.35V176.675H315.103V173.096Z" fill="white"/>
<path d="M303.906 179.172H295.152V182.751H303.906V179.172Z" fill="white"/>
<path d="M315.103 179.172H306.35V182.751H315.103V179.172Z" fill="white"/>
<path d="M303.906 185.24H295.152V188.82H303.906V185.24Z" fill="white"/>
<path d="M315.103 185.24H306.35V188.82H315.103V185.24Z" fill="white"/>
<path d="M303.906 191.316H295.152V194.896H303.906V191.316Z" fill="white"/>
<path d="M315.103 191.316H306.35V194.896H315.103V191.316Z" fill="white"/>
<path d="M303.906 197.393H295.152V200.972H303.906V197.393Z" fill="white"/>
<path d="M315.103 197.393H306.35V200.972H315.103V197.393Z" fill="white"/>
<path d="M303.906 203.461H295.152V207.04H303.906V203.461Z" fill="white"/>
<path d="M315.103 203.461H306.35V207.04H315.103V203.461Z" fill="white"/>
<path d="M303.906 209.537H295.152V213.117H303.906V209.537Z" fill="white"/>
<path d="M315.103 209.537H306.35V213.117H315.103V209.537Z" fill="white"/>
<path d="M303.906 215.613H295.152V219.193H303.906V215.613Z" fill="white"/>
<path d="M315.103 215.613H306.35V219.193H315.103V215.613Z" fill="white"/>
<path d="M303.906 221.683H295.152V225.262H303.906V221.683Z" fill="white"/>
<path d="M315.103 221.683H306.35V225.262H315.103V221.683Z" fill="white"/>
<path d="M303.906 227.759H295.152V231.338H303.906V227.759Z" fill="white"/>
<path d="M315.103 227.759H306.35V231.338H315.103V227.759Z" fill="white"/>
<path d="M303.906 233.835H295.152V237.414H303.906V233.835Z" fill="white"/>
<path d="M315.103 233.835H306.35V237.414H315.103V233.835Z" fill="white"/>
<path d="M303.906 239.903H295.152V243.483H303.906V239.903Z" fill="white"/>
<path d="M315.103 239.903H306.35V243.483H315.103V239.903Z" fill="white"/>
<path d="M342.37 156.597H319.81V257.786H342.37V156.597Z" fill="#C7C7C7"/>
<path d="M332.918 243.482H340.107V239.903H332.918V243.482Z" fill="#EBEBEB"/>
<path d="M323.728 243.482H330.917V239.903H323.728V243.482Z" fill="#EBEBEB"/>
<path d="M332.918 237.406H340.107V233.827H332.918V237.406Z" fill="#EBEBEB"/>
<path d="M323.728 237.406H330.917V233.827H323.728V237.406Z" fill="#EBEBEB"/>
<path d="M332.918 231.338H340.107V227.758H332.918V231.338Z" fill="#EBEBEB"/>
<path d="M323.728 231.338H330.917V227.758H323.728V231.338Z" fill="#EBEBEB"/>
<path d="M332.918 225.262H340.107V221.682H332.918V225.262Z" fill="#EBEBEB"/>
<path d="M323.728 225.262H330.917V221.682H323.728V225.262Z" fill="#EBEBEB"/>
<path d="M332.918 219.186H340.107V215.606H332.918V219.186Z" fill="#EBEBEB"/>
<path d="M323.728 219.186H330.917V215.606H323.728V219.186Z" fill="#EBEBEB"/>
<path d="M332.918 213.117H340.107V209.538H332.918V213.117Z" fill="#EBEBEB"/>
<path d="M323.728 213.117H330.917V209.538H323.728V213.117Z" fill="#EBEBEB"/>
<path d="M332.918 207.049H340.107V203.469H332.918V207.049Z" fill="#EBEBEB"/>
<path d="M323.728 207.049H330.917V203.469H323.728V207.049Z" fill="#EBEBEB"/>
<path d="M332.918 200.965H340.107V197.385H332.918V200.965Z" fill="#EBEBEB"/>
<path d="M323.728 200.965H330.917V197.385H323.728V200.965Z" fill="#EBEBEB"/>
<path d="M332.918 194.896H340.107V191.317H332.918V194.896Z" fill="#EBEBEB"/>
<path d="M323.728 194.896H330.917V191.317H323.728V194.896Z" fill="#EBEBEB"/>
<path d="M332.918 188.827H340.107V185.248H332.918V188.827Z" fill="#EBEBEB"/>
<path d="M323.728 188.827H330.917V185.248H323.728V188.827Z" fill="#EBEBEB"/>
<path d="M332.918 182.744H340.107V179.165H332.918V182.744Z" fill="#EBEBEB"/>
<path d="M323.728 182.744H330.917V179.165H323.728V182.744Z" fill="#EBEBEB"/>
<path d="M332.918 176.675H340.107V173.095H332.918V176.675Z" fill="#EBEBEB"/>
<path d="M323.728 176.675H330.917V173.095H323.728V176.675Z" fill="#EBEBEB"/>
<path d="M332.918 170.599H340.107V167.019H332.918V170.599Z" fill="#EBEBEB"/>
<path d="M323.728 170.599H330.917V167.019H323.728V170.599Z" fill="#EBEBEB"/>
<path d="M332.918 164.522H340.107V160.943H332.918V164.522Z" fill="#EBEBEB"/>
<path d="M323.728 164.522H330.917V160.943H323.728V164.522Z" fill="#EBEBEB"/>
<path d="M219.246 191.851H186.406V257.786H219.246V191.851Z" fill="#C7C7C7"/>
<path d="M197.385 197.559H191.572V201.597H197.385V197.559Z" fill="#DBDBDB"/>
<path d="M197.385 206.191H191.572V210.23H197.385V206.191Z" fill="#DBDBDB"/>
<path d="M197.385 214.816H191.572V218.855H197.385V214.816Z" fill="#DBDBDB"/>
<path d="M197.385 223.441H191.572V227.48H197.385V223.441Z" fill="#DBDBDB"/>
<path d="M197.385 232.075H191.572V236.113H197.385V232.075Z" fill="#DBDBDB"/>
<path d="M197.385 240.7H191.572V244.738H197.385V240.7Z" fill="#DBDBDB"/>
<path d="M197.385 249.326H191.572V253.364H197.385V249.326Z" fill="#DBDBDB"/>
<path d="M205.747 197.559H199.934V201.597H205.747V197.559Z" fill="#DBDBDB"/>
<path d="M205.747 206.191H199.934V210.23H205.747V206.191Z" fill="#DBDBDB"/>
<path d="M205.747 214.816H199.934V218.855H205.747V214.816Z" fill="#DBDBDB"/>
<path d="M205.747 223.441H199.934V227.48H205.747V223.441Z" fill="#DBDBDB"/>
<path d="M205.747 232.075H199.934V236.113H205.747V232.075Z" fill="#DBDBDB"/>
<path d="M205.747 240.7H199.934V244.738H205.747V240.7Z" fill="#DBDBDB"/>
<path d="M205.747 249.326H199.934V253.364H205.747V249.326Z" fill="#DBDBDB"/>
<path d="M214.087 197.559H208.274V201.597H214.087V197.559Z" fill="#DBDBDB"/>
<path d="M214.087 206.191H208.274V210.23H214.087V206.191Z" fill="#DBDBDB"/>
<path d="M214.087 214.816H208.274V218.855H214.087V214.816Z" fill="#DBDBDB"/>
<path d="M214.087 223.441H208.274V227.48H214.087V223.441Z" fill="#DBDBDB"/>
<path d="M214.087 232.075H208.274V236.113H214.087V232.075Z" fill="#DBDBDB"/>
<path d="M214.087 240.7H208.274V244.738H214.087V240.7Z" fill="#DBDBDB"/>
<path d="M214.087 249.326H208.274V253.364H214.087V249.326Z" fill="#DBDBDB"/>
<path d="M219.246 184.984H197.385V191.858H219.246V184.984Z" fill="#DBDBDB"/>
<path d="M219.246 180.729H205.386V184.985H219.246V180.729Z" fill="#EBEBEB"/>
<path d="M242.287 191.851H219.245V257.786H242.287V191.851Z" fill="#A6A6A6"/>
<path d="M235.203 252.725H239.933V248.686H235.203V252.725Z" fill="#C7C7C7"/>
<path d="M235.203 244.1H239.933V240.061H235.203V244.1Z" fill="#C7C7C7"/>
<path d="M235.203 235.467H239.933V231.429H235.203V235.467Z" fill="#C7C7C7"/>
<path d="M235.203 226.834H239.933V222.796H235.203V226.834Z" fill="#C7C7C7"/>
<path d="M235.203 218.216H239.933V214.178H235.203V218.216Z" fill="#C7C7C7"/>
<path d="M235.203 209.583H239.933V205.545H235.203V209.583Z" fill="#C7C7C7"/>
<path d="M235.203 200.957H239.933V196.919H235.203V200.957Z" fill="#C7C7C7"/>
<path d="M228.397 252.725H233.128V248.686H228.397V252.725Z" fill="#C7C7C7"/>
<path d="M228.397 244.1H233.128V240.061H228.397V244.1Z" fill="#C7C7C7"/>
<path d="M228.397 235.467H233.128V231.429H228.397V235.467Z" fill="#C7C7C7"/>
<path d="M228.397 226.834H233.128V222.796H228.397V226.834Z" fill="#C7C7C7"/>
<path d="M228.397 218.216H233.128V214.178H228.397V218.216Z" fill="#C7C7C7"/>
<path d="M228.397 209.583H233.128V205.545H228.397V209.583Z" fill="#C7C7C7"/>
<path d="M228.397 200.957H233.128V196.919H228.397V200.957Z" fill="#C7C7C7"/>
<path d="M221.607 252.725H226.337V248.686H221.607V252.725Z" fill="#C7C7C7"/>
<path d="M221.607 244.1H226.337V240.061H221.607V244.1Z" fill="#C7C7C7"/>
<path d="M221.607 235.467H226.337V231.429H221.607V235.467Z" fill="#C7C7C7"/>
<path d="M221.607 226.834H226.337V222.796H221.607V226.834Z" fill="#C7C7C7"/>
<path d="M221.607 218.216H226.337V214.178H221.607V218.216Z" fill="#C7C7C7"/>
<path d="M221.607 209.583H226.337V205.545H221.607V209.583Z" fill="#C7C7C7"/>
<path d="M221.607 200.957H226.337V196.919H221.607V200.957Z" fill="#C7C7C7"/>
<path d="M238.797 184.984H219.245V191.858H238.797V184.984Z" fill="#C7C7C7"/>
<path d="M229.841 180.729H219.245V184.985H229.841V180.729Z" fill="#DBDBDB"/>
<path d="M188 350.161C266.753 350.161 330.594 344.973 330.594 338.573C330.594 332.173 266.753 326.984 188 326.984C109.247 326.984 45.4058 332.173 45.4058 338.573C45.4058 344.973 109.247 350.161 188 350.161Z" fill="#EBEBEB"/>
<path d="M29.4106 263.253L69.0561 263.072L108.709 263.005L188 262.877L267.291 263.005L306.944 263.065L346.589 263.253L306.944 263.433L267.291 263.501L188 263.629L108.709 263.501L69.0561 263.433L29.4106 263.253Z" fill="#263238"/>
<path d="M344.89 257.786H31.1025V263.253H344.89V257.786Z" fill="#C7C7C7"/>
<path d="M53.1062 257.786C53.5975 259.575 53.5975 261.464 53.1062 263.253C52.8419 262.368 52.7151 261.447 52.7302 260.523C52.7178 259.597 52.8445 258.675 53.1062 257.786Z" fill="#263238"/>
<path d="M77.6289 257.786C77.8906 258.675 78.0173 259.597 78.0049 260.523C78.0201 261.447 77.8933 262.368 77.6289 263.253C77.1377 261.464 77.1377 259.575 77.6289 257.786Z" fill="#263238"/>
<path d="M102.159 257.786C102.65 259.575 102.65 261.464 102.159 263.253C101.895 262.368 101.768 261.447 101.783 260.523C101.771 259.597 101.898 258.675 102.159 257.786Z" fill="#263238"/>
<path d="M126.682 257.786C126.943 258.675 127.07 259.597 127.058 260.523C127.073 261.447 126.946 262.368 126.682 263.253C126.191 261.464 126.191 259.575 126.682 257.786Z" fill="#263238"/>
<path d="M151.212 257.786C151.703 259.575 151.703 261.464 151.212 263.253C150.948 262.368 150.821 261.447 150.836 260.523C150.824 259.597 150.95 258.675 151.212 257.786Z" fill="#263238"/>
<path d="M175.735 257.786C175.996 258.675 176.123 259.597 176.111 260.523C176.126 261.447 175.999 262.368 175.735 263.253C175.244 261.464 175.244 259.575 175.735 257.786Z" fill="#263238"/>
<path d="M200.265 257.786C200.756 259.575 200.756 261.464 200.265 263.253C200.001 262.368 199.874 261.447 199.889 260.523C199.877 259.597 200.003 258.675 200.265 257.786Z" fill="#263238"/>
<path d="M224.788 257.786C225.049 258.675 225.176 259.597 225.164 260.523C225.179 261.447 225.052 262.368 224.788 263.253C224.296 261.464 224.296 259.575 224.788 257.786Z" fill="#263238"/>
<path d="M249.318 257.786C249.809 259.575 249.809 261.464 249.318 263.253C249.054 262.368 248.927 261.447 248.942 260.523C248.93 259.597 249.056 258.675 249.318 257.786Z" fill="#263238"/>
<path d="M273.841 257.786C274.102 258.675 274.229 259.597 274.217 260.523C274.232 261.447 274.105 262.368 273.841 263.253C273.349 261.464 273.349 259.575 273.841 257.786Z" fill="#263238"/>
<path d="M298.371 257.786C298.862 259.575 298.862 261.464 298.371 263.253C298.107 262.368 297.98 261.447 297.995 260.523C297.982 259.597 298.109 258.675 298.371 257.786Z" fill="#263238"/>
<path d="M322.894 257.786C323.155 258.675 323.282 259.597 323.27 260.523C323.285 261.447 323.158 262.368 322.894 263.253C322.403 261.464 322.403 259.575 322.894 257.786Z" fill="#263238"/>
<path d="M66.4918 257.786C66.4918 257.786 65.8601 254.83 64.5968 254.379C63.3334 253.928 62.5588 255.251 62.5588 255.251C62.5588 255.251 62.2656 252.424 60.4683 251.582C58.671 250.739 57.3324 252.469 57.3324 252.469C57.3324 252.469 55.9563 248.912 53.4972 248.912C51.0382 248.912 49.8049 254.176 49.8049 254.176C49.8049 254.176 48.3536 252.619 46.8646 253.499C45.3756 254.379 45.3606 257.838 45.3606 257.838L66.4918 257.786Z" fill="#37474F"/>
<path d="M276.179 257.786C276.179 257.786 275.548 254.83 274.284 254.379C273.021 253.928 272.254 255.251 272.254 255.251C272.254 255.251 271.953 252.424 270.163 251.582C268.374 250.739 267.028 252.469 267.028 252.469C267.028 252.469 265.651 248.912 263.2 248.912C260.748 248.912 259.5 254.176 259.5 254.176C259.5 254.176 258.056 252.619 256.567 253.499C255.078 254.379 255.063 257.838 255.063 257.838L276.179 257.786Z" fill="#455A64"/>
<path d="M122.35 257.785H100.129C100.129 257.785 100.881 254.657 102.332 254.431C102.782 254.387 103.235 254.483 103.628 254.707C104.021 254.93 104.336 255.27 104.528 255.68C104.528 255.68 104.46 251.311 107.213 250.566C109.965 249.822 112.266 253.679 112.266 253.679C112.266 253.679 113.996 251.476 116.342 251.619C118.688 251.762 119.297 255.379 119.297 255.379C119.297 255.379 121.403 254.123 122.35 257.785Z" fill="#37474F"/>
<path d="M46.7443 257.785H35.0507C35.0507 257.785 35.0507 256.048 36.2238 255.582C36.5364 255.447 36.8843 255.418 37.2152 255.498C37.5462 255.578 37.8421 255.763 38.0587 256.026C38.0587 256.026 38.5249 252.822 40.6681 252.822C42.8113 252.822 43.8415 255.582 43.8415 255.582C44.0233 255.319 44.2783 255.114 44.575 254.994C44.8716 254.874 45.197 254.843 45.511 254.905C46.6991 255.056 46.7443 257.785 46.7443 257.785Z" fill="#455A64"/>
<path d="M131.525 257.785H119.831C119.831 257.785 119.831 256.048 121.004 255.582C121.317 255.447 121.665 255.418 121.996 255.498C122.327 255.578 122.623 255.763 122.839 256.026C122.839 256.026 123.313 252.822 125.456 252.822C127.599 252.822 128.622 255.582 128.622 255.582C128.804 255.319 129.059 255.114 129.355 254.994C129.652 254.874 129.978 254.843 130.291 254.905C131.48 255.056 131.525 257.785 131.525 257.785Z" fill="#455A64"/>
<path d="M323.886 257.785H312.193C312.193 257.785 312.193 256.048 313.366 255.582C313.678 255.447 314.026 255.418 314.357 255.498C314.688 255.578 314.984 255.763 315.201 256.026C315.201 256.026 315.667 252.822 317.81 252.822C319.953 252.822 320.984 255.582 320.984 255.582C321.165 255.318 321.42 255.113 321.716 254.992C322.013 254.872 322.339 254.842 322.653 254.905C323.841 255.056 323.886 257.785 323.886 257.785Z" fill="#455A64"/>
<path d="M340.949 257.786H321.668C321.668 257.786 321.713 254.913 323.608 254.154C324.123 253.937 324.695 253.893 325.237 254.029C325.78 254.165 326.263 254.472 326.616 254.906C326.616 254.906 327.368 249.642 330.925 249.642C334.482 249.642 336.144 254.176 336.144 254.176C336.443 253.741 336.864 253.404 337.353 253.205C337.842 253.005 338.378 252.954 338.896 253.056C340.874 253.289 340.949 257.786 340.949 257.786Z" fill="#37474F"/>
<path d="M254.063 36.3584H241.204V43.6453H254.063V36.3584Z" fill="#263238"/>
<path d="M255.875 33.9072H239.384V38.6749H255.875V33.9072Z" fill="#455A64"/>
<path d="M225.311 43.5603L221.807 47.0645L227.342 52.5999L230.846 49.0957L225.311 43.5603Z" fill="#263238"/>
<path d="M224.482 40.6641L218.915 46.2314L222.531 49.8473L228.098 44.2799L224.482 40.6641Z" fill="#455A64"/>
<path d="M264.42 49.0895L267.924 52.5938L273.46 47.0583L269.955 43.5541L264.42 49.0895Z" fill="#263238"/>
<path d="M267.153 44.2832L272.721 49.8506L276.336 46.2347L270.769 40.6674L267.153 44.2832Z" fill="#455A64"/>
<path d="M278.051 81.1165C281.993 64.3079 271.563 47.4859 254.754 43.5434C237.946 39.601 221.124 50.0311 217.181 66.8397C213.239 83.6484 223.669 100.47 240.478 104.413C257.286 108.355 274.108 97.9251 278.051 81.1165Z" fill="#455A64"/>
<path d="M247.25 103.294C263.722 103.294 277.074 89.9414 277.074 73.4698C277.074 56.9983 263.722 43.6455 247.25 43.6455C230.778 43.6455 217.426 56.9983 217.426 73.4698C217.426 89.9414 230.778 103.294 247.25 103.294Z" fill="#263238"/>
<path d="M273.689 77.655C275.794 63.2595 265.831 49.8831 251.435 47.7779C237.04 45.6727 223.663 55.6359 221.558 70.0314C219.453 84.4268 229.416 97.8033 243.812 99.9085C258.207 102.014 271.584 92.0505 273.689 77.655Z" fill="white"/>
<path opacity="0.5" d="M273.976 73.8532H247.656V47.5332C254.637 47.5332 261.331 50.3062 266.267 55.2422C271.203 60.1781 273.976 66.8727 273.976 73.8532Z" fill="#AEDC81"/>
<path d="M247.889 49.4209H247.378V53.414H247.889V49.4209Z" fill="#C7C7C7"/>
<path d="M235.632 52.55L235.189 52.8057L237.186 56.2638L237.628 56.0081L235.632 52.55Z" fill="#C7C7C7"/>
<path d="M226.591 61.4048L226.335 61.8477L229.793 63.8442L230.049 63.4014L226.591 61.4048Z" fill="#C7C7C7"/>
<path d="M227.194 73.5977H223.201V74.109H227.194V73.5977Z" fill="#C7C7C7"/>
<path d="M230.699 84.105L227.225 86.1016L227.481 86.5464L230.955 84.5499L230.699 84.105Z" fill="#C7C7C7"/>
<path d="M237.188 91.4275L235.193 94.8867L235.636 95.1422L237.631 91.683L237.188 91.4275Z" fill="#C7C7C7"/>
<path d="M247.889 94.293H247.378V98.2861H247.889V94.293Z" fill="#C7C7C7"/>
<path d="M258.067 91.4142L257.624 91.6699L259.621 95.1281L260.063 94.8724L258.067 91.4142Z" fill="#C7C7C7"/>
<path d="M265.456 83.8325L265.2 84.2754L268.658 86.2719L268.914 85.8291L265.456 83.8325Z" fill="#C7C7C7"/>
<path d="M272.066 73.5977H268.073V74.109H272.066V73.5977Z" fill="#C7C7C7"/>
<path d="M268.66 61.4019L265.202 63.3984L265.457 63.8413L268.915 61.8447L268.66 61.4019Z" fill="#C7C7C7"/>
<path d="M259.622 52.5607L257.627 56.0195L258.07 56.2751L260.065 52.8162L259.622 52.5607Z" fill="#C7C7C7"/>
<path d="M247.814 54.7907L248.987 75.4181L246.34 75.3805L247.1 54.7832L247.814 54.7907Z" fill="#AEDC81"/>
<path d="M248.536 73.8533C248.536 74.0336 248.482 74.2098 248.382 74.3596C248.282 74.5094 248.139 74.626 247.972 74.6946C247.806 74.7633 247.622 74.7809 247.446 74.7451C247.269 74.7094 247.107 74.622 246.98 74.494C246.853 74.366 246.767 74.2032 246.733 74.0262C246.698 73.8492 246.717 73.666 246.787 73.4999C246.858 73.3337 246.975 73.1921 247.126 73.0931C247.277 72.994 247.453 72.9419 247.633 72.9434C247.753 72.9434 247.871 72.967 247.981 73.0128C248.091 73.0586 248.19 73.1258 248.274 73.2103C248.358 73.2949 248.424 73.3953 248.469 73.5057C248.514 73.616 248.537 73.7342 248.536 73.8533Z" fill="#AEDC81"/>
<path d="M266.727 74.1621L246.099 75.3277L246.137 72.6807L266.734 73.4402L266.727 74.1621Z" fill="#263238"/>
<path d="M248.536 73.8533C248.536 74.0336 248.482 74.2098 248.382 74.3596C248.282 74.5094 248.139 74.626 247.972 74.6946C247.806 74.7633 247.622 74.7809 247.446 74.7451C247.269 74.7094 247.107 74.622 246.98 74.494C246.853 74.366 246.767 74.2032 246.733 74.0262C246.698 73.8492 246.717 73.666 246.787 73.4999C246.858 73.3337 246.975 73.1921 247.126 73.0931C247.277 72.994 247.453 72.9419 247.633 72.9434C247.753 72.9434 247.871 72.967 247.981 73.0128C248.091 73.0586 248.19 73.1258 248.274 73.2103C248.358 73.2949 248.424 73.3953 248.469 73.5057C248.514 73.616 248.537 73.7342 248.536 73.8533Z" fill="#AEDC81"/>
<path d="M140.526 130.473C144.399 145.25 149.445 154.898 152.829 158.237C160.936 166.238 178.397 168.013 188.218 172.088C191.414 173.419 200.25 153.146 196.979 151.371C194.565 150.055 166.53 146.505 164.147 145.776C162.921 145.4 153.619 133.285 148.355 126.472C139.872 115.553 138.406 122.404 140.526 130.473Z" fill="#F7A9A0"/>
<path d="M203.567 174.93C202.063 174.893 202.01 175.682 204.108 177.419C206.206 179.156 215.975 184.187 213.922 187.459C211.869 190.73 198.19 183.39 194.919 180.247C191.647 177.104 187.444 170.877 187.444 170.877C190.399 171.772 197.776 173.253 203.567 174.93Z" fill="#F7A9A0"/>
<path d="M194.618 150.73C209.176 152.986 214.967 155.837 221.344 163.281C222.072 164.086 222.511 165.11 222.592 166.192C225.51 169.47 224.848 171.839 224.848 171.839C226.623 175.727 225.6 178.051 225.6 178.051C225.6 178.051 228.984 181.938 226.969 184.375C224.713 187.112 220.411 181.111 216.027 179.261C205.973 175.013 190.459 171.794 187.451 170.862L194.618 150.73Z" fill="#F7A9A0"/>
<path d="M208.59 167.425C211.548 168.629 214.42 170.036 217.185 171.636C220.1 173.572 222.865 175.723 225.457 178.073C225.475 178.083 225.495 178.087 225.515 178.084C225.535 178.081 225.554 178.072 225.568 178.057C225.582 178.042 225.59 178.023 225.592 178.003C225.594 177.983 225.589 177.962 225.577 177.946C221.016 172.912 215.161 169.226 208.65 167.29C208.5 167.245 208.439 167.357 208.59 167.425Z" fill="#263238"/>
<path d="M210.267 160.981C213.057 162.409 217.93 164.959 224.75 171.922C224.75 171.922 224.818 171.922 224.795 171.922C221.094 166.969 216.087 163.144 210.335 160.875C210.154 160.77 210.086 160.883 210.267 160.981Z" fill="#263238"/>
<path d="M211.237 157.537C215.877 160.154 218.471 162.387 222.554 166.207C222.554 166.207 222.615 166.207 222.592 166.17C218.418 161.342 216.358 160.063 211.312 157.364C211.131 157.273 211.056 157.431 211.237 157.537Z" fill="#263238"/>
<path d="M157.04 137.173L143.632 149.739C143.632 149.739 138.218 130.247 138.255 124.08C138.255 117.124 141.835 118.659 146.527 123.328C151.22 127.998 157.04 137.173 157.04 137.173Z" fill="#AEDC81"/>
<path opacity="0.1" d="M157.04 137.173L143.632 149.739C143.632 149.739 138.218 130.247 138.255 124.08C138.255 117.124 141.835 118.659 146.527 123.328C151.22 127.998 157.04 137.173 157.04 137.173Z" fill="black"/>
<path d="M154.295 135.188C152.37 136.556 147.174 141.475 146.302 142.279C145.843 142.708 144.098 144.475 143.64 144.896C143.579 144.949 143.64 145.031 143.73 144.979C144.61 144.182 145.572 143.475 146.452 142.67C147.332 141.866 152.806 137.06 154.356 135.256C154.393 135.218 154.341 135.158 154.295 135.188Z" fill="#263238"/>
<path d="M228.097 287.963C226.277 288.557 173.877 286.459 171.915 285.188C171.674 285.045 170.742 274.969 170.742 274.969L176.803 236.248L211.207 236.707L204.567 269.795C204.567 269.795 212.147 273.284 218.396 276.33C222.246 278.195 225.592 279.902 226.36 280.526C228.375 282.135 229.924 287.377 228.097 287.963Z" fill="#F7A9A0"/>
<path d="M228.104 287.963C226.284 288.557 173.87 286.459 171.915 285.196C171.682 285.045 170.734 274.969 170.734 274.969L172.606 263.042L205.612 264.546L204.544 269.765C204.544 269.765 212.117 273.254 218.373 276.292C222.223 278.157 225.57 279.864 226.337 280.488C228.367 282.143 229.916 287.384 228.104 287.963Z" fill="#EBEBEB"/>
<path d="M228.074 288.016C226.217 288.595 173.471 287.369 171.494 286.046C170.742 285.557 170.463 277.856 170.403 268.546V268.261L204.446 268.674V269.246C204.446 269.246 224.427 278.751 226.45 280.436C228.473 282.12 229.932 287.459 228.074 288.016Z" fill="#C7C7C7"/>
<path d="M225.066 288.166C213.523 288.287 173.178 287.204 171.494 286.053C170.742 285.565 170.463 277.864 170.403 268.554V268.269L191.723 268.524L225.066 288.166Z" fill="#A6A6A6"/>
<path d="M227.525 285.971C218.637 285.542 182.751 284.662 173.938 284.918C173.863 284.918 173.863 284.97 173.938 284.978C182.736 285.587 218.622 286.174 227.518 286.114C227.706 286.114 227.713 285.978 227.525 285.971Z" fill="#263238"/>
<path d="M207.274 269.426C203.792 268.674 199.498 269.126 196.746 271.562C196.64 271.652 196.746 271.803 196.889 271.765C200.258 270.765 203.724 270.13 207.229 269.87C207.282 269.867 207.333 269.845 207.373 269.808C207.412 269.771 207.436 269.721 207.442 269.668C207.447 269.614 207.433 269.56 207.402 269.516C207.371 269.472 207.326 269.44 207.274 269.426Z" fill="#263238"/>
<path d="M209.763 271.006C206.281 270.254 201.987 270.713 199.235 273.142C199.13 273.232 199.235 273.382 199.378 273.352C202.755 272.356 206.229 271.726 209.74 271.472C209.802 271.475 209.863 271.454 209.909 271.412C209.954 271.37 209.982 271.312 209.985 271.251C209.988 271.189 209.966 271.128 209.925 271.082C209.883 271.037 209.825 271.009 209.763 271.006Z" fill="#263238"/>
<path d="M212.252 272.585C208.77 271.833 204.476 272.292 201.724 274.721C201.619 274.819 201.724 274.962 201.867 274.932C205.236 273.93 208.702 273.292 212.207 273.029C212.261 273.026 212.312 273.004 212.351 272.967C212.39 272.93 212.414 272.88 212.42 272.826C212.425 272.773 212.411 272.719 212.381 272.675C212.35 272.631 212.304 272.599 212.252 272.585Z" fill="#263238"/>
<path d="M207.454 264.787L169.05 263.042C169.05 263.042 182.322 209.147 180.909 207.394C179.405 205.514 123.802 219.426 112.687 205.635C101.302 191.505 107.01 171.163 107.01 171.163H144.933C144.933 171.163 144.181 176.254 144.692 178.683C144.692 178.683 198.084 170.516 209.695 176.668C211.951 177.878 220.223 184.677 220.359 191.121C221.088 219.584 207.454 264.787 207.454 264.787Z" fill="#455A64"/>
<path d="M207.838 257.83C203.281 257.259 198.716 256.913 194.136 256.567C189.557 256.221 184.977 255.95 180.397 255.777C177.81 255.672 175.224 255.695 172.637 255.604C172.623 255.609 172.612 255.618 172.604 255.629C172.596 255.641 172.591 255.654 172.591 255.668C172.591 255.682 172.596 255.696 172.604 255.708C172.612 255.719 172.623 255.728 172.637 255.732C174.938 255.898 177.231 256.191 179.532 256.372L186.346 256.868C190.925 257.169 195.505 257.424 200.085 257.703C202.664 257.861 205.243 257.943 207.83 258.003C207.849 257.999 207.866 257.988 207.878 257.973C207.891 257.958 207.898 257.939 207.899 257.92C207.9 257.9 207.894 257.881 207.883 257.865C207.872 257.849 207.856 257.837 207.838 257.83Z" fill="#263238"/>
<path d="M186.827 203.567C179.45 203.807 172.11 204.447 164.771 205.168C157.431 205.89 150.047 206.672 142.647 207.154C138.977 207.387 135.292 207.537 131.608 207.56C128.547 207.691 125.484 207.372 122.516 206.612C119.569 205.751 117.051 203.82 115.455 201.198C113.85 198.54 112.798 195.586 112.364 192.512C111.394 186.293 112.364 179.939 113.499 173.803C113.642 173.051 113.785 172.299 113.921 171.486C113.921 171.419 113.823 171.389 113.8 171.486C112.296 177.675 110.89 184.045 111.341 190.437C111.526 193.573 112.291 196.648 113.597 199.506C114.776 202.282 116.803 204.615 119.388 206.169C122.027 207.673 125.148 208.116 128.178 208.267C131.713 208.447 135.292 208.267 138.827 208.109C146.392 207.74 153.927 206.958 161.447 206.176C168.967 205.394 176.449 204.627 184.007 204.251C184.842 204.206 185.676 204.176 186.511 204.146C185.368 210.914 175.69 251.206 175.148 254.394C175.096 254.71 175.397 254.808 175.479 254.485C177.134 248.205 186.526 207.861 187.15 203.92C187.16 203.874 187.159 203.827 187.147 203.781C187.135 203.736 187.112 203.694 187.08 203.66C187.048 203.625 187.009 203.599 186.965 203.582C186.921 203.566 186.873 203.561 186.827 203.567Z" fill="#263238"/>
<path d="M216.433 289.535H134.36V298.612H216.433V289.535Z" fill="#AEDC81"/>
<path d="M62.2355 209.906H66.8904L96.9704 244.318H92.3155L62.2355 209.906Z" fill="#A6A6A6"/>
<path d="M120.861 207.176H56.1744V209.898H120.861V207.176Z" fill="#A6A6A6"/>
<path d="M79.7872 209.906H84.4421L114.522 244.318H109.867L79.7872 209.906Z" fill="#A6A6A6"/>
<path d="M109.717 273.345C133.089 273.345 146.632 289.58 146.632 308.689C146.632 327.797 134.089 343.664 111.296 343.664C86.0739 343.664 74.0269 323.601 74.0269 308.516C74.0269 293.431 86.0589 273.345 109.717 273.345Z" fill="#37474F"/>
<path d="M106.122 273.345C128.344 273.345 141.211 289.58 141.211 308.689C141.211 327.797 129.291 343.664 107.611 343.664C83.6299 343.664 72.192 323.571 72.192 308.486C72.192 293.401 83.6299 273.345 106.122 273.345Z" fill="#263238"/>
<path d="M106.348 287.068C119.884 287.068 127.727 296.965 127.727 308.606C127.727 320.247 120.463 329.91 107.258 329.91C92.639 329.91 85.6604 317.682 85.6604 308.485C85.6604 299.288 92.639 287.068 106.348 287.068Z" fill="#C7C7C7"/>
<path d="M175.878 230.503V227.428L97.2262 229.962V236.88C97.2262 236.88 74.4481 262.035 72.147 288.182L151.017 289.851L163.688 289.535H179.247V273.728C179.247 273.728 167.486 265.156 169.546 247.642C170.23 241.829 175.878 230.503 175.878 230.503Z" fill="#AEDC81"/>
<path d="M143.67 286.188C142.85 287.692 130.886 289.851 108.205 290.46C87.7886 291.009 72.538 290.558 71.3574 289.242C70.1767 287.926 73.1847 264.651 87.0065 252.048C100.828 239.444 120.395 237.632 133.3 245.152C144.647 251.747 153.115 268.509 143.67 286.188Z" fill="#AEDC81"/>
<path opacity="0.1" d="M147.52 264.155C146.307 258.644 143.511 253.607 139.473 249.664C135.427 245.609 130.373 242.705 124.832 241.249C118.651 239.706 112.178 239.776 106.032 241.452C102.956 242.259 99.9819 243.412 97.166 244.889C94.1929 246.487 91.3909 248.384 88.8037 250.551C88.1119 251.123 87.4125 251.695 86.7282 252.281C86.668 252.326 86.7282 252.409 86.8184 252.364C89.4215 250.075 92.2396 248.042 95.2333 246.295C97.9651 244.735 100.863 243.486 103.874 242.573C109.842 240.706 116.18 240.35 122.32 241.535C127.87 242.65 133.013 245.249 137.202 249.055C141.24 252.69 144.209 257.357 145.79 262.553C147.67 268.885 147.054 275.856 145.181 282.105C144.933 282.948 144.662 283.775 144.384 284.602C144.384 284.692 144.489 284.722 144.519 284.64C147.046 278.15 148.934 271.156 147.52 264.155Z" fill="black"/>
<path d="M92.8495 292.859C79.1556 292.859 71.9063 292.438 68.229 290.979L69.936 286.685C74.2375 288.392 87.7058 288.362 109.378 288.114C125.389 287.926 137.202 286.414 144.572 283.602L146.219 287.918C138.248 290.926 126.216 292.52 109.431 292.716C103.062 292.806 97.572 292.859 92.8495 292.859Z" fill="#DBDBDB"/>
<path d="M177.171 229.451C177.171 229.451 177.698 212.245 177.171 211.568C176.645 210.891 97.0231 209.455 94.6393 209.665C92.2555 209.876 92.0148 229.969 92.1953 230.909C92.3758 231.849 175.096 229.631 177.171 229.451Z" fill="#37474F"/>
<path d="M184.631 211.913C184.398 211.643 174.306 211.357 173.75 211.342C173.193 211.327 172.998 229.668 173.298 229.653C173.599 229.638 184.263 229.788 184.616 229.397C184.969 229.006 185.135 212.5 184.631 211.913Z" fill="#455A64"/>
<path d="M128.863 209.68C128.578 209.977 128.391 210.355 128.329 210.763C128.234 211.192 128.167 211.626 128.126 212.064C128.028 212.936 127.975 213.823 127.93 214.703C127.855 216.478 127.81 218.26 127.78 220.05C127.75 221.84 127.705 223.614 127.78 225.381C127.787 226.257 127.847 227.131 127.96 227.998C128.006 228.418 128.104 228.83 128.254 229.224C128.309 229.401 128.406 229.562 128.537 229.693C128.668 229.824 128.829 229.921 129.006 229.976C128.807 229.97 128.615 229.908 128.451 229.796C128.287 229.684 128.158 229.527 128.081 229.345C127.87 228.951 127.706 228.535 127.592 228.104C127.379 227.222 127.241 226.324 127.178 225.419C127.039 223.618 126.994 221.811 127.043 220.005C127.088 218.207 127.163 216.403 127.366 214.605C127.464 213.706 127.607 212.813 127.795 211.928C127.9 211.491 128.028 211.059 128.178 210.635C128.299 210.266 128.509 209.808 128.863 209.68Z" fill="#455A64"/>
<path d="M59.1674 207.139H134.36V160.394H59.1674V207.139Z" fill="#37474F"/>
<path d="M59.1675 207.139H113.492V160.394H59.1675L59.1675 207.139Z" fill="#263238"/>
<path d="M89.2549 160.387H83.4119V207.131H89.2549V160.387Z" fill="#AEDC81"/>
<path d="M113.499 156.062H57.6409V160.386H113.499V156.062Z" fill="#37474F"/>
<path d="M136.044 156.062H113.492V160.386H136.044V156.062Z" fill="#263238"/>
<path d="M89.7437 156.062H82.9155V160.386H89.7437V156.062Z" fill="#AEDC81"/>
<path d="M67.1311 156.258H122.02V122.132H67.1311V156.258Z" fill="#37474F"/>
<path d="M67.131 156.258H106.784V122.132H67.131V156.258Z" fill="#263238"/>
<path d="M89.0894 122.14H84.8256V156.265H89.0894V122.14Z" fill="#AEDC81"/>
<path d="M106.784 118.981H66.0105V122.14H106.784V118.981Z" fill="#37474F"/>
<path d="M123.245 118.981H106.784V122.14H123.245V118.981Z" fill="#263238"/>
<path d="M89.4504 118.981H84.4646V122.14H89.4504V118.981Z" fill="#AEDC81"/>
<path d="M281.383 273.059C304.763 273.059 318.299 289.294 318.299 308.403C318.299 327.511 305.756 343.356 282.955 343.356C257.725 343.356 245.678 323.292 245.678 308.215C245.678 293.137 257.725 273.059 281.383 273.059Z" fill="#37474F"/>
<path d="M277.789 273.059C300.01 273.059 312.885 289.294 312.885 308.403C312.885 327.511 300.958 343.356 279.285 343.356C255.304 343.356 243.851 323.292 243.851 308.215C243.851 293.137 255.304 273.059 277.789 273.059Z" fill="#263238"/>
<path d="M278.014 286.783C291.55 286.783 299.401 296.68 299.401 308.32C299.401 319.961 292.137 329.625 278.924 329.625C264.313 329.625 257.334 317.397 257.334 308.208C257.334 299.018 264.313 286.783 278.014 286.783Z" fill="#C7C7C7"/>
<path d="M243.565 193.234H234.368L228.067 183.984H238.843L243.565 193.234Z" fill="#AEDC81"/>
<path d="M228.067 183.984L231.759 189.399L234.368 193.234H243.565L241.076 188.361L238.835 183.984H228.067Z" fill="#AEDC81"/>
<path opacity="0.1" d="M228.067 183.984L231.759 189.399L241.076 188.361L238.835 183.984H228.067Z" fill="black"/>
<path d="M265.915 262.26L256.958 264.32L248.747 256.71L259.244 254.304L265.915 262.26Z" fill="#AEDC81"/>
<path d="M248.747 256.71L253.552 261.169L256.951 264.32L265.922 262.26L262.403 258.071L259.245 254.304L248.747 256.71Z" fill="#AEDC81"/>
<path opacity="0.1" d="M248.747 256.71L253.552 261.169L262.403 258.071L259.245 254.304L248.747 256.71Z" fill="black"/>
<path d="M316.269 277.571L307.568 282.143C307.568 282.143 282.369 277.571 266.208 281.03C250.048 284.489 245.686 293.122 245.686 293.122H237.519C237.519 293.122 244.528 268.223 256.417 259.184C268.306 250.145 287.414 252.168 297.98 257.861C308.546 263.553 316.269 277.571 316.269 277.571Z" fill="#AEDC81"/>
<path opacity="0.1" d="M306.651 280.421C304.965 278.661 303.139 277.041 301.191 275.578C299.261 274.077 297.219 272.725 295.085 271.532C290.947 269.233 286.41 267.743 281.714 267.141C272.525 266.013 262.914 268.69 256.146 275.751C252.341 279.752 249.634 284.662 247.062 289.618C247.025 289.693 247.13 289.753 247.167 289.678C249.346 285.321 252.098 281.274 255.349 277.646C258.482 274.225 262.381 271.597 266.727 269.976C275.398 266.795 284.775 268.013 293.107 271.856C295.493 272.937 297.795 274.194 299.995 275.616C302.245 277.131 304.416 278.76 306.5 280.496C306.514 280.508 306.531 280.516 306.549 280.519C306.567 280.521 306.585 280.518 306.601 280.51C306.617 280.502 306.631 280.489 306.64 280.473C306.649 280.457 306.652 280.439 306.651 280.421Z" fill="black"/>
<path d="M211.034 188.255C210.898 188.571 192.738 191.91 192.738 191.91C192.738 191.91 189.73 189.88 191.587 187.308L209.808 183.375C210.508 183.95 211.006 184.734 211.226 185.613C211.447 186.492 211.38 187.418 211.034 188.255Z" fill="#263238"/>
<path d="M249.153 164.778V186.323C249.153 186.323 237.519 185.307 234.421 185.202C231.323 185.097 217.554 186.879 217.554 186.879L216.486 182.051C216.486 182.051 227.104 178.344 231.616 175.449C236.128 172.554 241.324 167.019 244.114 165.793C245.693 165.071 247.418 164.724 249.153 164.778Z" fill="#AEDC81"/>
<path d="M217.599 181.442C218.29 182.154 218.812 183.012 219.125 183.954C219.437 184.896 219.533 185.896 219.404 186.879C219.404 186.879 210.733 188.466 210.628 188.466C210.7 187.446 210.452 186.429 209.92 185.556C209.388 184.682 208.597 183.997 207.657 183.593L217.599 181.442Z" fill="#DBDBDB"/>
<path d="M249.265 186.323C252.414 186.323 254.966 181.502 254.966 175.555C254.966 169.607 252.414 164.786 249.265 164.786C246.117 164.786 243.565 169.607 243.565 175.555C243.565 181.502 246.117 186.323 249.265 186.323Z" fill="#DBDBDB"/>
<path d="M249.619 185.165C252.314 185.165 254.499 180.863 254.499 175.555C254.499 170.247 252.314 165.944 249.619 165.944C246.923 165.944 244.738 170.247 244.738 175.555C244.738 180.863 246.923 185.165 249.619 185.165Z" fill="white"/>
<path d="M251.1 193.264C252.995 196.039 260.583 233.774 262.072 235.669C263.561 237.564 266.411 237.699 266.411 237.699L271.427 250.168C271.427 250.168 258.966 254.1 252.048 259.786C243.107 267.133 234.842 291.49 234.842 291.49C233.488 292.437 216.689 299.348 212.079 299.619C212.079 299.619 233.503 276.096 235.248 243.542C235.925 230.931 228.164 213.169 227.66 204.371C227.104 194.926 229.962 193.264 234.977 193.264H251.1Z" fill="#AEDC81"/>
<path d="M211.049 302.304L207.695 299.131C226.495 279.233 233.428 247.882 232.879 239.324C232.594 234.94 231.187 230.037 229.691 224.841C228.097 219.299 226.292 213.019 225.525 206.199C224.81 199.867 225.525 195.776 227.683 193.332C229.841 190.888 232.804 190.896 234.774 190.903H252.672V195.52H234.767C233.045 195.52 231.872 195.581 231.127 196.415C230.383 197.25 229.413 199.423 230.12 205.687C230.872 212.117 232.518 217.938 234.135 223.563C235.699 229.007 237.143 234.143 237.489 239.024C238.076 248.16 230.864 281.421 211.049 302.304Z" fill="#DBDBDB"/>
<path d="M262.162 245.964C263.215 249.845 266.531 252.311 269.569 251.484C272.608 250.657 274.224 246.844 273.164 242.971C272.104 239.099 268.787 236.617 265.749 237.444C262.711 238.271 261.102 242.092 262.162 245.964Z" fill="#DBDBDB"/>
<path d="M263.29 245.656C264.23 249.115 267.103 251.341 269.705 250.634C272.307 249.927 273.645 246.551 272.713 243.114C271.78 239.677 268.9 237.429 266.306 238.136C263.711 238.843 262.35 242.197 263.29 245.656Z" fill="white"/>
<path opacity="0.1" d="M248.86 245.34C248.025 241.437 247.122 237.549 246.34 233.639C245.558 229.729 244.836 225.811 244.227 221.878C243.633 218.215 242.994 214.516 242.761 210.808C242.528 206.935 242.761 203.025 244.641 199.528C244.645 199.521 244.647 199.514 244.648 199.506C244.649 199.498 244.649 199.49 244.647 199.482C244.645 199.475 244.641 199.467 244.636 199.461C244.631 199.455 244.625 199.449 244.618 199.445C244.611 199.442 244.604 199.439 244.596 199.438C244.588 199.437 244.58 199.438 244.572 199.44C244.565 199.442 244.557 199.445 244.551 199.45C244.545 199.455 244.539 199.461 244.536 199.468C242.603 202.288 241.971 205.68 241.866 209.041C241.876 212.747 242.203 216.445 242.844 220.095C243.941 228.111 245.447 236.065 247.356 243.926C248.446 248.371 249.852 252.74 251.356 257.056C251.356 257.07 251.362 257.084 251.372 257.093C251.381 257.103 251.395 257.109 251.409 257.109C251.423 257.109 251.436 257.103 251.446 257.093C251.456 257.084 251.461 257.07 251.461 257.056C250.564 253.131 249.697 249.225 248.86 245.34Z" fill="black"/>
<path opacity="0.1" d="M179.247 273.728V289.52H165.771V277.564C165.771 277.564 158.251 273.766 156.747 259.952C155.393 247.438 165.38 230.737 167.275 227.706L175.855 227.428V230.503C175.855 230.503 170.208 241.829 169.523 247.641C167.485 265.156 179.247 273.728 179.247 273.728Z" fill="black"/>
<path d="M213.139 293.213C211.32 293.799 158.913 291.709 156.95 290.438C156.717 290.295 155.784 280.211 155.784 280.211L161.846 241.49L196.25 241.949L189.609 275.037C189.609 275.037 197.182 278.519 203.439 281.564C207.289 283.437 210.635 285.144 211.402 285.76C213.41 287.385 214.959 292.626 213.139 293.213Z" fill="#F7A9A0"/>
<path d="M213.147 293.212C211.32 293.799 158.913 291.708 156.958 290.437C156.717 290.294 155.777 280.217 155.777 280.217L157.649 268.283L190.655 269.787L189.609 274.991C189.609 274.991 197.182 278.48 203.439 281.518C207.281 283.391 210.635 285.098 211.402 285.715C213.41 287.392 214.959 292.625 213.147 293.212Z" fill="#EBEBEB"/>
<path d="M213.109 293.28C211.259 293.859 158.507 292.626 156.529 291.302C155.777 290.814 155.506 283.121 155.446 273.811V273.518L189.482 273.931V274.51C189.482 274.51 209.462 284.008 211.485 285.692C213.508 287.377 214.967 292.701 213.109 293.28Z" fill="#C7C7C7"/>
<path d="M212.56 291.212C203.679 290.791 167.794 289.911 158.98 290.167C158.905 290.167 158.905 290.22 158.98 290.22C167.779 290.836 203.664 291.423 212.56 291.363C212.748 291.355 212.748 291.22 212.56 291.212Z" fill="#263238"/>
<path d="M192.317 274.668C188.835 273.916 184.541 274.375 181.789 276.804C181.676 276.902 181.789 277.045 181.931 277.015C185.3 276.012 188.767 275.374 192.271 275.112C192.325 275.109 192.376 275.087 192.415 275.05C192.454 275.013 192.479 274.963 192.484 274.909C192.49 274.856 192.476 274.802 192.445 274.758C192.414 274.714 192.369 274.682 192.317 274.668Z" fill="#263238"/>
<path d="M194.806 276.255C191.324 275.503 187.03 275.954 184.278 278.383C184.172 278.481 184.278 278.631 184.42 278.593C187.792 277.591 191.261 276.953 194.768 276.691C194.797 276.693 194.825 276.69 194.853 276.681C194.88 276.673 194.906 276.659 194.928 276.64C194.95 276.622 194.968 276.599 194.981 276.574C194.994 276.548 195.002 276.52 195.005 276.492C195.007 276.463 195.004 276.434 194.995 276.407C194.987 276.379 194.973 276.354 194.954 276.332C194.936 276.31 194.913 276.292 194.888 276.278C194.862 276.265 194.834 276.257 194.806 276.255Z" fill="#263238"/>
<path d="M197.295 277.834C193.813 277.082 189.519 277.533 186.767 279.969C186.661 280.06 186.767 280.21 186.91 280.172C190.279 279.176 193.746 278.541 197.25 278.277C197.303 278.275 197.354 278.253 197.394 278.215C197.433 278.178 197.457 278.128 197.462 278.075C197.468 278.021 197.454 277.967 197.423 277.923C197.392 277.879 197.347 277.847 197.295 277.834Z" fill="#263238"/>
<path d="M192.512 270.036L154.107 268.284C154.107 268.284 167.388 214.388 165.974 212.636C164.47 210.748 113.83 224.668 102.708 210.876C91.3229 196.746 102.708 173.096 102.708 173.096H141.639C141.639 173.096 141.639 177.427 138.992 183.909C138.992 183.909 183.135 175.735 194.768 181.887C197.062 183.105 205.296 189.903 205.431 196.348C206.108 224.848 192.512 270.036 192.512 270.036Z" fill="#455A64"/>
<path d="M192.881 263.08C188.323 262.509 183.751 262.155 179.172 261.817C174.592 261.478 170.02 261.2 165.433 261.02C162.853 260.922 160.266 260.944 157.679 260.847C157.662 260.847 157.644 260.854 157.632 260.867C157.619 260.879 157.612 260.896 157.612 260.914C157.612 260.932 157.619 260.95 157.632 260.962C157.644 260.975 157.662 260.982 157.679 260.982C159.981 261.147 162.274 261.433 164.575 261.614C166.876 261.794 169.087 261.96 171.388 262.11C175.961 262.418 180.54 262.667 185.12 262.952C187.707 263.11 190.286 263.193 192.873 263.253C192.892 263.248 192.909 263.238 192.921 263.223C192.934 263.208 192.941 263.189 192.942 263.169C192.942 263.15 192.937 263.131 192.926 263.115C192.915 263.099 192.899 263.086 192.881 263.08Z" fill="#263238"/>
<path d="M118.989 176.352C118.938 176.511 118.873 176.664 118.794 176.811C118.785 176.821 118.78 176.835 118.78 176.848C118.78 176.862 118.785 176.875 118.794 176.886C118.342 178.292 118.154 179.781 117.718 181.195C117.304 182.696 116.385 184.008 115.116 184.91C112.454 186.76 109.258 187.594 106.16 188.362C106.141 188.367 106.125 188.378 106.113 188.394C106.102 188.41 106.095 188.429 106.095 188.448C106.095 188.467 106.102 188.486 106.113 188.502C106.125 188.518 106.141 188.529 106.16 188.534C107.946 188.544 109.722 188.273 111.424 187.73C113.023 187.287 114.53 186.564 115.876 185.594C117.14 184.638 118.041 183.28 118.433 181.744C118.622 180.927 118.77 180.101 118.876 179.27C119.05 178.314 119.153 177.346 119.185 176.375C119.174 176.36 119.16 176.348 119.144 176.338C119.128 176.329 119.11 176.323 119.092 176.321C119.073 176.319 119.055 176.321 119.037 176.326C119.02 176.331 119.003 176.34 118.989 176.352Z" fill="#263238"/>
<path d="M145.256 181.984C143.139 182.595 141.076 183.383 139.09 184.338L138.992 184.383C139.033 184.261 139.063 184.135 139.083 184.007C139.083 183.857 139.128 183.714 139.158 183.563C139.188 183.413 139.158 183.255 139.203 183.097V182.857C139.459 182.84 139.708 182.771 139.936 182.653C140.164 182.535 140.365 182.371 140.526 182.172C140.942 181.595 141.222 180.932 141.346 180.232C141.579 179.36 141.797 178.472 141.985 177.585C142.173 176.698 142.376 175.607 142.534 174.577C142.725 173.602 142.838 172.614 142.873 171.622C142.873 171.586 142.858 171.551 142.833 171.526C142.808 171.501 142.773 171.486 142.737 171.486C142.701 171.486 142.667 171.501 142.642 171.526C142.616 171.551 142.602 171.586 142.602 171.622C142.369 172.532 142.263 173.472 142.091 174.389C141.918 175.306 141.722 176.231 141.511 177.149C141.301 178.066 141.075 178.984 140.82 179.886C140.564 180.789 140.368 181.864 139.436 182.142C137.511 182.691 138.376 178.382 138.458 177.525C138.654 175.57 138.774 173.569 139.12 171.629C139.12 171.554 139.007 171.516 138.992 171.629C138.571 173.411 138.097 175.164 137.782 176.968C137.624 177.856 137.511 178.751 137.413 179.638C137.257 180.407 137.319 181.204 137.594 181.939C137.713 182.187 137.891 182.403 138.112 182.567C138.334 182.73 138.592 182.838 138.864 182.879L138.804 183.082C138.759 183.225 138.714 183.368 138.676 183.511C138.639 183.654 138.609 183.804 138.579 183.947C138.512 184.117 138.489 184.3 138.511 184.481C138.528 184.532 138.563 184.574 138.609 184.601C137.789 184.955 136.962 185.308 136.15 185.692C135.129 186.093 134.141 186.573 133.194 187.128C133.082 187.181 133.194 187.331 133.277 187.308C134.336 187.011 135.371 186.637 136.375 186.188C137.406 185.797 138.421 185.376 139.443 184.947C141.469 184.203 143.429 183.29 145.302 182.217C145.332 182.211 145.36 182.193 145.377 182.167C145.395 182.141 145.402 182.109 145.396 182.078C145.39 182.047 145.372 182.02 145.345 182.002C145.319 181.985 145.287 181.978 145.256 181.984Z" fill="#263238"/>
<path d="M204.288 191.452C202.956 187.536 200.261 184.229 196.693 182.135C193.031 180.112 188.76 179.571 184.661 179.443C179.894 179.3 175.096 179.548 170.336 179.849C165.267 180.165 160.199 180.646 155.16 181.353C150.122 182.06 145.174 182.925 140.218 183.992C139.03 184.248 137.849 184.564 136.669 184.895C136.578 184.895 136.593 185.09 136.669 185.075C141.594 184.384 146.497 183.571 151.423 182.895C156.348 182.218 161.327 181.684 166.305 181.308C171.283 180.932 176.209 180.721 181.164 180.646C185.225 180.586 189.436 180.646 193.294 181.955C195.202 182.564 196.968 183.548 198.491 184.85C199.986 186.187 201.211 187.797 202.1 189.595C204.131 193.588 204.319 198.168 204.522 202.589C205.108 215.712 195.671 257.41 193.994 264.111C193.989 264.169 194.006 264.227 194.04 264.274C194.074 264.321 194.123 264.355 194.18 264.37C194.237 264.384 194.296 264.378 194.349 264.353C194.401 264.327 194.443 264.284 194.467 264.231C196.355 256.666 205.747 217.276 205.747 205.44C205.755 200.717 205.928 195.904 204.288 191.452Z" fill="#263238"/>
<path d="M171.614 208.093C164.733 208.334 157.89 208.973 151.047 209.695C144.204 210.417 137.308 211.199 130.419 211.681C126.99 211.914 123.554 212.064 120.117 212.087C117.26 212.22 114.399 211.901 111.642 211.139C108.842 210.234 106.488 208.302 105.054 205.732C103.55 203.039 102.572 200.083 102.174 197.024C101.272 190.805 102.174 184.451 103.235 178.314C103.37 177.562 103.498 176.81 103.633 176.006C103.633 175.93 103.535 175.9 103.52 176.006C102.084 182.195 100.798 188.564 101.264 194.956C101.435 198.08 102.145 201.151 103.362 204.033C104.424 206.76 106.312 209.087 108.762 210.688C111.285 212.038 114.097 212.758 116.959 212.786C120.27 212.91 123.586 212.857 126.892 212.628C133.946 212.26 140.97 211.477 147.986 210.695C155.002 209.913 161.973 209.146 168.997 208.77C169.749 208.733 170.554 208.695 171.328 208.673C170.268 215.403 161.244 255.725 160.74 258.914C160.687 259.229 160.973 259.327 161.048 259.011C162.552 252.725 171.351 212.387 171.93 208.439C171.94 208.395 171.939 208.348 171.927 208.303C171.915 208.259 171.893 208.218 171.862 208.184C171.831 208.15 171.792 208.124 171.749 208.108C171.706 208.093 171.66 208.088 171.614 208.093Z" fill="#263238"/>
<path d="M100.475 177.9C100.58 178.051 152.024 182.006 152.566 181.525C153.318 180.841 148.227 128.133 143.632 120.402C142.647 118.755 138.879 117.891 135.578 117.921C134.719 117.916 133.86 117.989 133.014 118.139H132.931C132.248 118.255 131.589 118.486 130.983 118.823C121.102 124.989 110.559 149.339 107.905 156.709C103.505 168.861 100.091 177.359 100.475 177.9Z" fill="#AEDC81"/>
<path d="M141.263 127.126C138.706 127.126 134.39 122.998 133.533 119.125C133.473 118.854 134.533 116.545 135.676 113.673C136.368 111.921 137.097 109.965 137.631 108.131C137.736 107.747 148.332 114.274 148.332 114.274C147.008 116.38 145.948 118.641 145.174 121.005C145.104 121.251 145.056 121.502 145.031 121.757C145.034 121.799 145.034 121.842 145.031 121.885C144.828 123.411 143.993 127.164 141.263 127.126Z" fill="#F7A9A0"/>
<path d="M145.031 121.779C145.034 121.822 145.034 121.865 145.031 121.907C144.625 121.848 144.225 121.755 143.835 121.629C137.067 119.508 137.774 110.499 138.06 108.251C140.023 109.138 148.355 114.267 148.355 114.267C147.032 116.375 145.969 118.635 145.189 120.997C145.116 121.254 145.063 121.515 145.031 121.779Z" fill="#263238"/>
<path d="M138.571 94.0373C136.714 98.083 137.285 110.581 139.91 113.68C143.722 118.192 150.791 119.553 154.844 114.785C158.77 110.16 157.74 93.9094 154.732 90.9842C150.287 86.6827 141.324 88.0739 138.571 94.0373Z" fill="#F7A9A0"/>
<path d="M149.46 102.941C149.46 102.941 149.4 102.987 149.4 103.024C149.46 103.859 149.4 104.836 148.648 105.145C148.648 105.145 148.648 105.197 148.648 105.19C149.573 105.024 149.648 103.731 149.46 102.941Z" fill="#263238"/>
<path d="M148.671 102.099C147.317 102.047 147.324 104.769 148.58 104.814C149.836 104.859 149.814 102.137 148.671 102.099Z" fill="#263238"/>
<path d="M154.333 103.077C154.333 103.077 154.401 103.115 154.393 103.152C154.393 103.987 154.483 104.957 155.243 105.235C155.243 105.235 155.243 105.288 155.243 105.281C154.31 105.153 154.16 103.867 154.333 103.077Z" fill="#263238"/>
<path d="M155.085 102.197C156.431 102.092 156.544 104.807 155.288 104.897C154.032 104.987 153.949 102.273 155.085 102.197Z" fill="#263238"/>
<path d="M147.603 100.858C147.958 100.752 148.307 100.627 148.648 100.482C149.037 100.408 149.389 100.203 149.648 99.9034C149.712 99.7931 149.738 99.6648 149.722 99.5384C149.705 99.4119 149.648 99.2944 149.558 99.204C149.353 99.0541 149.112 98.9618 148.859 98.9367C148.607 98.9115 148.352 98.9545 148.122 99.0611C147.62 99.2021 147.191 99.5271 146.918 99.9711C146.864 100.076 146.84 100.194 146.85 100.311C146.86 100.429 146.904 100.541 146.976 100.634C147.048 100.727 147.145 100.798 147.257 100.838C147.368 100.878 147.488 100.885 147.603 100.858Z" fill="#263238"/>
<path d="M156.13 100.821C155.764 100.751 155.402 100.658 155.047 100.543C154.654 100.503 154.285 100.331 154.002 100.054C153.926 99.9536 153.885 99.8308 153.885 99.7045C153.885 99.5783 153.926 99.4555 154.002 99.3548C154.193 99.1866 154.426 99.0727 154.676 99.0251C154.926 98.9775 155.184 98.9979 155.423 99.0841C155.934 99.1803 156.39 99.4648 156.702 99.8813C156.765 99.9775 156.799 100.09 156.801 100.205C156.803 100.32 156.773 100.433 156.713 100.532C156.653 100.63 156.567 100.71 156.463 100.761C156.36 100.812 156.245 100.833 156.13 100.821Z" fill="#263238"/>
<path d="M148.693 110.755C148.896 110.951 149.099 111.221 149.445 111.251C149.758 111.242 150.065 111.168 150.347 111.033C150.347 111.033 150.4 111.033 150.385 111.079C150.265 111.244 150.102 111.374 149.914 111.455C149.726 111.536 149.52 111.564 149.317 111.537C149.144 111.493 148.988 111.398 148.87 111.264C148.752 111.129 148.677 110.963 148.655 110.785C148.603 110.748 148.663 110.725 148.693 110.755Z" fill="#263238"/>
<path d="M152.137 109.221C151.784 109.687 151.314 110.052 150.776 110.281C150.481 110.395 150.158 110.416 149.851 110.341C149.182 110.168 149.159 109.589 149.28 109.018C149.351 108.74 149.452 108.47 149.58 108.213C150.303 108.814 151.199 109.167 152.137 109.221Z" fill="#263238"/>
<path d="M150.776 110.281C150.481 110.395 150.158 110.416 149.851 110.341C149.182 110.168 149.159 109.589 149.28 109.018C149.635 109.029 149.976 109.16 150.247 109.389C150.519 109.619 150.705 109.933 150.776 110.281Z" fill="#FF9BBC"/>
<path d="M156.529 95.1132C156.07 94.0453 155.536 92.97 154.889 92.7519C154.243 92.5338 153.829 94.113 152.363 94.2108C150.393 94.3461 149.437 92.5338 146.678 92.3383C142.707 92.0676 140.962 95.3463 140.872 101.001C140.789 106.025 137.751 106.498 137.751 106.498C137.751 106.498 135.909 95.4215 139.03 91.7517C142.151 88.082 149.317 86.4877 154.13 89.962C155.882 91.2329 156.529 95.1132 156.529 95.1132Z" fill="#263238"/>
<path d="M140.286 104.528C140.286 104.528 137.977 100.264 136.074 101.038C134.172 101.813 135.586 107.806 137.578 108.807C137.828 108.957 138.106 109.055 138.394 109.094C138.683 109.134 138.976 109.115 139.257 109.039C139.538 108.962 139.801 108.83 140.03 108.649C140.258 108.468 140.447 108.243 140.586 107.987L140.286 104.528Z" fill="#F7A9A0"/>
<path d="M136.526 102.73V102.783C137.932 103.535 138.549 105.039 138.932 106.49C138.863 106.333 138.761 106.192 138.633 106.078C138.505 105.963 138.353 105.878 138.189 105.828C138.024 105.778 137.851 105.764 137.681 105.788C137.51 105.811 137.347 105.871 137.202 105.964C137.157 105.964 137.202 106.054 137.202 106.047C137.471 105.995 137.75 106.027 138 106.139C138.25 106.251 138.46 106.436 138.601 106.671C138.829 107.069 139.016 107.49 139.158 107.927C139.21 108.062 139.458 108.025 139.421 107.867V107.829C139.676 105.949 138.518 103.152 136.526 102.73Z" fill="#263238"/>
<path d="M156.055 91.8118C154.889 91.5336 148.43 91.7291 145.527 92.9774C142.624 94.2257 137.466 98.3993 137.202 98.6174C136.939 98.8355 135.608 88.1872 144.249 86.247C153.656 84.1264 156.055 91.8118 156.055 91.8118Z" fill="#AEDC81"/>
<path d="M137.699 98.1812C137.699 98.1812 143.407 90.6612 146.58 88.9316C149.753 87.202 156.86 86.2394 161.259 88.1796C164.681 89.6836 156.318 94.0903 156.318 94.0903C156.239 93.7295 156.077 93.3921 155.845 93.1049C155.612 92.8177 155.316 92.5886 154.98 92.4359C152.844 91.5861 148.783 92.2404 146.467 93.0149C143.549 94.0001 137.699 98.1812 137.699 98.1812Z" fill="#AEDC81"/>
<path opacity="0.2" d="M137.699 98.2187C137.699 98.2187 143.407 90.6535 146.58 88.9314C149.753 87.2094 156.86 86.2393 161.259 88.1794C164.681 89.6834 156.318 94.0902 156.318 94.0902C156.239 93.7293 156.077 93.3919 155.845 93.1048C155.612 92.8176 155.316 92.5885 154.98 92.4358C152.844 91.586 148.783 92.2403 146.467 93.0148C143.549 93.9999 137.699 98.2187 137.699 98.2187Z" fill="black"/>
<path d="M127.727 132.886C127.246 147.716 132.721 175.487 136.751 177.374C149.761 183.451 171.652 183.834 179.149 183.902C182.383 183.902 187.346 160.906 184.142 159.612C182.014 158.755 149.919 158.747 149.355 157.604C148.791 156.461 141.143 139.947 137.842 130.803C133.458 118.643 128.006 124.178 127.727 132.886Z" fill="#F7A9A0"/>
<path d="M180.698 159.304C180.698 159.304 190.527 159.905 196.926 160.597C200.506 160.981 206.574 162.191 209.064 163.673C212.824 165.929 226.991 177.57 224.239 181.074C221.742 184.24 210.823 172.667 210.823 172.667C210.823 172.667 222.855 183.368 219.17 186.639C215.486 189.91 204.882 175.178 204.882 175.178C204.882 175.178 217.02 186.458 212.666 189.226C209.379 191.309 199.024 178.517 199.024 178.517C199.024 178.517 209.394 188.293 206.101 190.549C202.461 193.084 192.166 181.871 192.166 181.871C182.819 186.293 176.562 184.571 172.253 182.819C171.193 182.428 180.698 159.304 180.698 159.304Z" fill="#F7A9A0"/>
<path d="M206.89 168.696C208.349 169.899 209.838 171.11 211.184 172.456C212.53 173.802 213.839 175.171 215.057 176.622C216.687 178.489 218.1 180.535 219.268 182.721C216.914 178.961 212.162 174.148 210.808 172.817C209.455 171.486 208.184 170.087 206.838 168.756C206.8 168.711 206.853 168.666 206.89 168.696Z" fill="#263238"/>
<path d="M201.995 173.479C203.792 175.096 205.634 176.645 207.364 178.344C209.094 180.044 210.568 181.796 212.169 183.608C212.29 183.744 212.169 183.766 212.041 183.608C210.372 181.871 208.695 180.39 207.011 178.668C205.326 176.946 203.694 175.156 201.95 173.501C201.92 173.494 201.965 173.456 201.995 173.479Z" fill="#263238"/>
<path d="M197.024 176.825C199.845 179.244 202.408 181.948 204.672 184.894C204.785 185.037 204.634 185.052 204.507 184.894C202.017 182.164 200.085 180.006 196.941 176.915C196.919 176.878 197.024 176.78 197.024 176.825Z" fill="#263238"/>
<path d="M207.823 162.485C205.486 161.487 203.007 160.865 200.476 160.642C195.016 159.973 189.526 159.537 184.037 159.138C178.547 158.74 172.975 158.386 167.44 158.183C164.327 158.063 161.214 157.97 158.1 157.905C154.987 157.845 154.34 157.958 151.212 157.995C151.129 157.995 151.137 158.108 151.212 158.116C156.664 158.401 159.672 158.627 165.124 158.913C170.576 159.198 176.013 159.522 181.45 159.898C186.887 160.274 192.234 160.65 197.603 161.251C200.2 161.428 202.775 161.843 205.296 162.492C207.765 163.399 210.056 164.733 212.064 166.433C214.365 168.245 222.99 176.54 223.78 177.615C223.878 177.743 223.915 177.705 223.863 177.54C223.239 175.291 212.869 164.838 207.823 162.485Z" fill="#263238"/>
<path d="M143.256 142.459L127.261 151.529C127.261 151.529 126.584 131.315 128.066 125.314C129.735 118.546 132.818 120.892 136.292 126.517C139.767 132.142 143.256 142.459 143.256 142.459Z" fill="#AEDC81"/>
<path opacity="0.1" d="M143.256 142.459L127.261 151.529C127.261 151.529 126.584 131.315 128.066 125.314C129.735 118.546 132.818 120.892 136.292 126.517C139.767 132.142 143.256 142.459 143.256 142.459Z" fill="black"/>
<path d="M141.053 139.872C138.864 140.752 132.653 144.316 131.623 144.896C131.081 145.196 128.96 146.512 128.419 146.813C128.351 146.851 128.419 146.949 128.487 146.911C129.532 146.339 130.63 145.873 131.683 145.309C132.736 144.745 139.203 141.346 141.098 139.947C141.105 139.94 141.11 139.931 141.111 139.921C141.112 139.911 141.11 139.901 141.105 139.892C141.1 139.883 141.092 139.877 141.082 139.873C141.073 139.869 141.062 139.869 141.053 139.872Z" fill="#263238"/>
<path d="M140.737 134.977C140.489 134.037 140.233 133.104 139.947 132.172C140.105 132.864 140.286 133.556 140.466 134.247C139.887 132.939 139.293 131.645 138.646 130.39H138.609C139.308 132.428 140.113 134.428 140.865 136.451C141.617 138.474 142.369 140.406 143.121 142.384C142.782 142.647 142.451 142.903 142.105 143.136C142.091 143.145 142.082 143.159 142.078 143.175C142.075 143.192 142.078 143.209 142.087 143.223C142.096 143.236 142.11 143.246 142.126 143.25C142.142 143.253 142.159 143.25 142.173 143.241C142.587 143.031 143 142.82 143.429 142.632C143.479 142.613 143.519 142.577 143.543 142.529C143.567 142.482 143.572 142.427 143.557 142.377C142.715 139.917 141.782 137.421 140.737 134.977Z" fill="#263238"/>
<g opacity="0.5">
<path opacity="0.5" d="M319.314 126.028C319.314 126.726 319.107 127.408 318.719 127.988C318.331 128.568 317.78 129.02 317.135 129.287C316.49 129.554 315.781 129.623 315.097 129.486C314.412 129.35 313.784 129.013 313.291 128.519C312.798 128.025 312.463 127.396 312.327 126.711C312.192 126.027 312.263 125.317 312.531 124.673C312.799 124.029 313.252 123.478 313.833 123.092C314.414 122.705 315.097 122.499 315.795 122.501C316.258 122.501 316.716 122.592 317.143 122.77C317.571 122.947 317.959 123.207 318.286 123.534C318.613 123.862 318.872 124.251 319.049 124.679C319.225 125.107 319.315 125.565 319.314 126.028Z" fill="#AEDC81"/>
<path opacity="0.5" d="M315.795 132.006C314.602 132.014 313.434 131.666 312.439 131.008C311.443 130.35 310.667 129.411 310.207 128.31C309.747 127.209 309.624 125.997 309.855 124.826C310.086 123.656 310.66 122.58 311.504 121.737C312.347 120.893 313.423 120.319 314.593 120.088C315.763 119.857 316.976 119.98 318.077 120.44C319.178 120.9 320.117 121.677 320.775 122.672C321.433 123.667 321.781 124.835 321.773 126.028C321.764 127.611 321.13 129.126 320.011 130.245C318.892 131.364 317.377 131.997 315.795 132.006ZM315.795 120.802C314.763 120.802 313.754 121.107 312.895 121.68C312.037 122.253 311.367 123.067 310.97 124.019C310.573 124.972 310.468 126.021 310.666 127.034C310.865 128.047 311.359 128.978 312.086 129.71C312.813 130.443 313.741 130.944 314.752 131.149C315.764 131.355 316.813 131.257 317.769 130.867C318.725 130.478 319.544 129.814 320.122 128.959C320.701 128.104 321.014 127.098 321.021 126.066C321.026 125.376 320.895 124.693 320.634 124.054C320.374 123.416 319.99 122.835 319.504 122.346C319.018 121.856 318.44 121.468 317.804 121.203C317.167 120.938 316.484 120.802 315.795 120.802Z" fill="#AEDC81"/>
<path opacity="0.5" d="M103.656 92.3006C103.657 92.9985 103.451 93.6811 103.065 94.2621C102.678 94.8431 102.128 95.2963 101.484 95.5644C100.839 95.8325 100.13 95.9034 99.4452 95.7682C98.7606 95.6329 98.1315 95.2976 97.6375 94.8047C97.1435 94.3117 96.8068 93.6833 96.6701 92.999C96.5334 92.3146 96.6028 91.6051 96.8696 90.9602C97.1363 90.3153 97.5883 89.764 98.1685 89.3762C98.7486 88.9883 99.4308 88.7813 100.129 88.7813C101.063 88.7812 101.959 89.1518 102.62 89.8116C103.281 90.4714 103.654 91.3665 103.656 92.3006Z" fill="#AEDC81"/>
<path opacity="0.5" d="M100.129 98.2868C98.9374 98.2942 97.7706 97.9477 96.7763 97.2912C95.782 96.6347 95.0051 95.6978 94.544 94.5992C94.0829 93.5006 93.9584 92.2898 94.1862 91.1203C94.4141 89.9509 94.9841 88.8754 95.8239 88.0303C96.6638 87.1852 97.7356 86.6085 98.9036 86.3733C100.072 86.1381 101.283 86.255 102.385 86.7092C103.486 87.1634 104.428 87.9345 105.091 88.9246C105.753 89.9147 106.107 91.0793 106.107 92.2708C106.107 93.8598 105.479 95.3843 104.358 96.5115C103.238 97.6386 101.718 98.2768 100.129 98.2868ZM100.129 87.0744C99.0845 87.067 98.0616 87.3704 97.1902 87.9459C96.3188 88.5215 95.6383 89.3432 95.2352 90.3066C94.8322 91.27 94.7247 92.3315 94.9267 93.3561C95.1286 94.3807 95.6307 95.3221 96.3691 96.0605C97.1076 96.799 98.0489 97.3011 99.0736 97.503C100.098 97.7049 101.16 97.5975 102.123 97.1944C103.086 96.7913 103.908 96.1108 104.484 95.2394C105.059 94.368 105.363 93.3451 105.355 92.3008C105.345 90.9178 104.792 89.5941 103.814 88.6161C102.836 87.6381 101.512 87.0843 100.129 87.0744Z" fill="#AEDC81"/>
<path opacity="0.5" d="M233.195 144.648H187.624V74.2002H127.487V92.6769H105.731V91.9249H126.735V73.4482H188.376V143.896H232.443V124.381H284.023V105.378H316.171V120.426H315.419V106.13H284.775V125.133H233.195V144.648Z" fill="#AEDC81"/>
</g>
<path d="M112.65 55.6479C112.025 49.3913 107.709 43.1572 100.129 43.1572C92.5486 43.1572 88.2397 49.4214 87.6155 55.6479C86.6605 65.3111 93.1728 74.0644 100.129 82.0507C107.085 74.0945 113.605 65.3412 112.65 55.6479ZM100.129 62.5964C98.772 62.5964 97.4458 62.194 96.3178 61.4401C95.1898 60.6862 94.3107 59.6146 93.7919 58.361C93.273 57.1074 93.1376 55.728 93.4029 54.3974C93.6681 53.0669 94.322 51.8449 95.2819 50.886C96.2418 49.9272 97.4646 49.2746 98.7954 49.0108C100.126 48.747 101.505 48.8839 102.759 49.4042C104.012 49.9244 105.082 50.8046 105.835 51.9334C106.588 53.0622 106.989 54.389 106.987 55.7457C106.991 56.6485 106.816 57.5432 106.473 58.3783C106.131 59.2135 105.626 59.9726 104.989 60.612C104.351 61.2515 103.594 61.7586 102.76 62.1043C101.926 62.45 101.032 62.6275 100.129 62.6265V62.5964Z" fill="#AEDC81"/>
</svg>
