<svg xmlns="http://www.w3.org/2000/svg" version="1.1" xmlns:xlink="http://www.w3.org/1999/xlink" xmlns:svgjs="http://svgjs.dev/svgjs" width="1000" height="750" viewBox="0 0 1000 750"><rect width="1000" height="750" fill="#ffffff"></rect><g transform="matrix(0.834,0,0,0.834,82.49454545454546,115.4193570850203)"><svg viewBox="0 0 396 247" data-background-color="#ffffff" preserveAspectRatio="xMidYMid meet" height="623" width="1000" xmlns="http://www.w3.org/2000/svg" xmlns:xlink="http://www.w3.org/1999/xlink"><g id="tight-bounds" transform="matrix(1,0,0,1,0.2400000000000091,-0.09999999999999432)"><svg viewBox="0 0 395.52 247.2" height="247.2" width="395.52"><g><svg></svg></g><g><svg viewBox="0 0 395.52 247.2" height="247.2" width="395.52"><g transform="matrix(1,0,0,1,75.54432,77.58850836732753)"><svg viewBox="0 0 244.43135999999998 92.02298326534492" height="92.02298326534492" width="244.43135999999998"><g><svg viewBox="0 0 244.43135999999998 92.02298326534492" height="92.02298326534492" width="244.43135999999998"><g><svg viewBox="0 0 244.43135999999998 92.02298326534492" height="92.02298326534492" width="244.43135999999998"><g><svg viewBox="0 0 244.43135999999998 92.02298326534492" height="92.02298326534492" width="244.43135999999998"><g><svg viewBox="0 0 244.43135999999998 92.02298326534492" height="92.02298326534492" width="244.43135999999998"><g><svg viewBox="0 0 244.43135999999998 49.63279998519204" height="49.63279998519204" width="244.43135999999998"><g transform="matrix(1,0,0,1,0,0)"><svg width="244.43135999999998" viewBox="5.76 -41.94 263.78000000000003 53.559999999999995" height="49.63279998519204" data-palette-color="#ee4439"><path d="M5.76 0L5.76-37.35 26.93-37.35 26.93-33.74 9.91-33.74 9.91-20.85 23.63-20.85 23.63-17.26 9.91-17.26 9.91-3.59 27.59-3.59 27.59 0 5.76 0ZM32.91-2.39L34.67-5.76Q39.69-2.95 44.77-2.95L44.77-2.95Q49-2.95 49.73-5.96L49.73-5.96Q49.97-6.98 49.97-8.46 49.97-9.94 49.63-10.75 49.29-11.57 48.48-11.98 47.68-12.38 46.35-12.57 45.02-12.77 42.97-13.12 40.92-13.48 39.21-13.92 37.5-14.36 36.3-15.19L36.3-15.19Q33.76-16.97 33.86-21.19L33.86-21.19 33.86-21.8Q33.86-26.25 36.79-28.13L36.79-28.13Q39.62-29.98 46.14-29.39L46.14-29.39Q50.58-28.98 53.22-27.86L53.22-27.86 52.07-24.17Q49.14-25.42 45.04-25.98L45.04-25.98Q43.77-26.15 42.66-26.15 41.55-26.15 40.65-25.98 39.74-25.81 39.13-25.34L39.13-25.34Q37.96-24.39 37.91-21.8L37.91-21.8Q37.84-18.75 39.62-17.92L39.62-17.92Q41.33-17.11 43.67-16.81 46.02-16.5 47.51-16.27 49-16.04 50.22-15.65 51.44-15.26 52.32-14.4L52.32-14.4Q54.15-12.67 54.1-8.37L54.1-8.37Q53.98-0.88 47.85 0.17L47.85 0.17Q45.99 0.49 44.14 0.49 42.28 0.49 40.73 0.26 39.18 0.02 37.77-0.39L37.77-0.39Q35.08-1.15 32.91-2.39L32.91-2.39ZM77.49-25.76L77.49-25.76Q72.63-25.76 67.84-22.95L67.84-22.95 67.84 0 63.79 0 63.79-41.55 67.74-41.94 67.74-26.05Q70.26-28.2 74.29-29.15L74.29-29.15Q75.9-29.54 78.1-29.54 80.29-29.54 81.95-29.04 83.61-28.54 84.59-27.44L84.59-27.44Q86.35-25.46 86.35-20.24L86.35-20.24 86.35 0 82.25 0 82.25-19.51Q82.25-23.02 81.56-24.04 80.88-25.05 79.94-25.4 79-25.76 77.49-25.76ZM96.21-14.45L96.21-14.45Q96.21-20 96.77-22.19 97.33-24.39 98.15-25.67 98.97-26.95 100.36-27.81L100.36-27.81Q103.14-29.54 108.59-29.54L108.59-29.54Q116.45-29.54 118.69-25.66L118.69-25.66Q120.04-23.32 120.23-19.04L120.23-19.04Q120.31-17.02 120.31-14.58 120.31-12.13 120.15-10.02 119.99-7.91 119.52-6.23 119.06-4.54 118.23-3.28 117.4-2.03 116.03-1.17L116.03-1.17Q113.35 0.49 108.2 0.49L108.2 0.49Q100.48 0.49 98.06-3.32L98.06-3.32Q96.57-5.69 96.33-9.96L96.33-9.96Q96.21-12.01 96.21-14.45ZM102.85-4.27Q103.73-3.61 105.06-3.28 106.39-2.95 108.7-2.95 111-2.95 112.58-3.61 114.15-4.27 114.95-5.73 115.74-7.18 115.95-9.5 116.15-11.82 116.15-14.89 116.15-17.97 115.97-20.02 115.79-22.07 115.06-23.41L115.06-23.41Q113.59-26.05 108.54-26.05L108.54-26.05Q103.19-26.05 101.58-23.41L101.58-23.41Q100.77-22.07 100.55-20 100.33-17.92 100.33-15.48 100.33-13.04 100.4-11.34 100.46-9.64 100.71-8.29 100.97-6.93 101.47-5.93 101.97-4.93 102.85-4.27ZM134.24-1.73L134.24-1.73 134.24 11.11 130.19 11.11 130.19-29.05 133.49-29.05 133.95-26.05Q136.81-28.2 141.4-29.2L141.4-29.2Q143.06-29.54 145.01-29.54 146.96-29.54 148.46-29.03 149.97-28.52 150.94-27.6 151.92-26.68 152.46-25.42 152.99-24.15 153.26-22.66L153.26-22.66Q153.6-20.61 153.6-16.11L153.6-16.11 153.6-15.55Q153.6-9.84 153.21-7.64 152.82-5.44 152.19-4.02 151.55-2.59 150.43-1.59L150.43-1.59Q148.11 0.49 143.25 0.49 138.39 0.49 134.24-1.73ZM134.24-22.92L134.24-5.08Q138.39-3.17 142.96-3.17L142.96-3.17Q145.94-3.17 147.3-4.27L147.3-4.27Q149.16-5.79 149.38-11.33L149.38-11.33Q149.45-13.16 149.45-15.53L149.45-15.53 149.45-16.06Q149.45-21.68 148.48-23.58L148.48-23.58Q147.38-25.76 143.94-25.76L143.94-25.76 143.57-25.76Q139.98-25.76 136.12-23.97L136.12-23.97Q135-23.46 134.24-22.92L134.24-22.92ZM167.54-1.73L167.54-1.73 167.54 11.11 163.49 11.11 163.49-29.05 166.78-29.05 167.25-26.05Q170.1-28.2 174.69-29.2L174.69-29.2Q176.35-29.54 178.31-29.54 180.26-29.54 181.76-29.03 183.26-28.52 184.24-27.6 185.22-26.68 185.75-25.42 186.29-24.15 186.56-22.66L186.56-22.66Q186.9-20.61 186.9-16.11L186.9-16.11 186.9-15.55Q186.9-9.84 186.51-7.64 186.12-5.44 185.49-4.02 184.85-2.59 183.73-1.59L183.73-1.59Q181.41 0.49 176.55 0.49 171.69 0.49 167.54-1.73ZM167.54-22.92L167.54-5.08Q171.69-3.17 176.26-3.17L176.26-3.17Q179.24-3.17 180.6-4.27L180.6-4.27Q182.46-5.79 182.68-11.33L182.68-11.33Q182.75-13.16 182.75-15.53L182.75-15.53 182.75-16.06Q182.75-21.68 181.77-23.58L181.77-23.58Q180.68-25.76 177.23-25.76L177.23-25.76 176.87-25.76Q173.28-25.76 169.42-23.97L169.42-23.97Q168.3-23.46 167.54-22.92L167.54-22.92ZM199.84-36.01L199.84-36.01Q198.2-36.01 197.74-36.47L197.74-36.47Q197.01-37.23 197.01-38.56 197.01-39.89 197.17-40.47 197.32-41.04 197.64-41.36L197.64-41.36Q198.23-41.94 199.44-41.94 200.64-41.94 201.17-41.82 201.69-41.7 202.04-41.36L202.04-41.36Q202.62-40.77 202.62-39.44 202.62-38.11 202.49-37.54 202.35-36.96 202.04-36.62L202.04-36.62Q201.43-36.01 199.84-36.01ZM197.91 0L197.86-29.05 201.86-29.05 201.86 0 197.91 0ZM227.35-25.73L227.35-25.73Q222.59-25.73 217.66-22.92L217.66-22.92 217.66 0 213.61 0 213.61-29.05 217.17-29.05 217.56-26.05Q220.22-28.22 224.18-29.15L224.18-29.15Q225.79-29.54 227.96-29.54 230.13-29.54 231.79-29.04 233.45-28.54 234.43-27.44L234.43-27.44Q236.21-25.46 236.21-20.24L236.21-20.24 236.21 0 232.11 0 232.11-19.48Q232.11-23 231.43-24.01 230.74-25.02 229.8-25.38 228.86-25.73 227.35-25.73ZM265.61-27.05L265.61-27.05 266-29.05 269.51-29.05 269.54-0.54Q269.54 5.74 267.07 8.59L267.07 8.59Q264.43 11.62 258.16 11.62L258.16 11.62Q253.28 11.62 249.49 10.3L249.49 10.3Q248.54 9.99 248.03 9.72L248.03 9.72 249.3 6.27Q249.74 6.42 250.59 6.75 251.44 7.08 252.64 7.4L252.64 7.4Q255.67 8.2 258.2 8.2 260.72 8.2 262.09 7.69 263.46 7.18 264.21 6.1L264.21 6.1Q265.48 4.3 265.48-0.46L265.48-0.46 265.48-2.78Q260.82 0.49 255.62 0.49L255.62 0.49Q249.54 0.49 247.51-3.83L247.51-3.83Q246.34-6.27 246.15-10.01L246.15-10.01Q246.07-11.72 246.07-13.78 246.07-15.84 246.11-17.94 246.15-20.04 246.42-21.83 246.68-23.61 247.26-25.04 247.83-26.46 248.91-27.47L248.91-27.47Q251.13-29.54 255.75-29.54 260.38-29.54 265.61-27.05ZM265.48-6.08L265.48-23.68Q261.09-25.88 256.99-25.88L256.99-25.88Q254.01-25.88 253.06-25.39 252.1-24.9 251.6-24.12 251.1-23.34 250.79-21.97L250.79-21.97Q250.22-19.41 250.22-13.53L250.22-13.53 250.22-12.99Q250.22-7.57 251.57-5.4L251.57-5.4Q252.91-3.17 256.47-3.17L256.47-3.17 256.84-3.17Q260.21-3.17 263.73-5.03L263.73-5.03Q264.73-5.54 265.48-6.08L265.48-6.08Z" opacity="1" transform="matrix(1,0,0,1,0,0)" fill="#ee4439" class="undefined-text-0" data-fill-palette-color="primary" id="text-0"></path></svg></g></svg></g><g transform="matrix(1,0,0,1,0,61.34991287449623)"><svg viewBox="0 0 244.43135999999998 30.67307039084868" height="30.67307039084868" width="244.43135999999998"><g transform="matrix(1,0,0,1,0,0)"><svg width="244.43135999999998" viewBox="2.35 -38.3 307.59999999999997 38.599999999999994" height="30.67307039084868" data-palette-color="#ee3e38"><path d="M11.5 0.3L11.5 0.3Q9.1 0.3 7-1 4.9-2.3 3.63-4.4 2.35-6.5 2.35-8.95L2.35-8.95 2.35-14.75Q2.35-17.2 3.6-19.3 4.85-21.4 6.95-22.65 9.05-23.9 11.5-23.9L11.5-23.9Q14-23.9 16.07-22.68 18.15-21.45 19.43-19.38 20.7-17.3 20.7-14.75L20.7-14.75 20.7-8.95Q20.7-6.55 19.43-4.42 18.15-2.3 16.07-1 14 0.3 11.5 0.3ZM11.5-2L11.5-2Q13.4-2 14.9-3 16.4-4 17.32-5.6 18.25-7.2 18.25-8.95L18.25-8.95 18.25-14.75Q18.25-16.5 17.35-18.05 16.45-19.6 14.93-20.6 13.4-21.6 11.5-21.6L11.5-21.6Q9.6-21.6 8.1-20.6 6.6-19.6 5.7-18.05 4.8-16.5 4.8-14.75L4.8-14.75 4.8-8.95Q4.8-7.2 5.7-5.6 6.6-4 8.13-3 9.65-2 11.5-2ZM67.22 0L67.22 0Q66.72 0 66.37-0.33 66.02-0.65 66.02-1.05L66.02-1.05 66.02-22.6Q66.02-23.05 66.37-23.33 66.72-23.6 67.22-23.6L67.22-23.6Q67.77-23.6 68.1-23.33 68.42-23.05 68.42-22.6L68.42-22.6 68.42-20.1Q69.27-21.55 70.95-22.73 72.62-23.9 75.12-23.9L75.12-23.9Q77.57-23.9 79.6-22.68 81.62-21.45 82.85-19.38 84.07-17.3 84.07-14.75L84.07-14.75 84.07-1.05Q84.07-0.55 83.7-0.28 83.32 0 82.82 0L82.82 0Q82.42 0 82.02-0.28 81.62-0.55 81.62-1.05L81.62-1.05 81.62-14.75Q81.62-16.5 80.7-18.05 79.77-19.6 78.27-20.6 76.77-21.6 74.92-21.6L74.92-21.6Q73.32-21.6 71.85-20.78 70.37-19.95 69.42-18.43 68.47-16.9 68.47-14.75L68.47-14.75 68.47-1.05Q68.47-0.65 68.12-0.33 67.77 0 67.22 0ZM131.74 0L131.74 0Q131.24 0 130.89-0.33 130.54-0.65 130.54-1.05L130.54-1.05 130.54-37.25Q130.54-37.75 130.89-38.02 131.24-38.3 131.74-38.3L131.74-38.3Q132.29-38.3 132.64-38.02 132.99-37.75 132.99-37.25L132.99-37.25 132.99-1.05Q132.99-0.65 132.64-0.33 132.29 0 131.74 0ZM180.91 0L180.91 0Q180.41 0 180.06-0.33 179.71-0.65 179.71-1.05L179.71-1.05 179.71-22.6Q179.71-23.05 180.06-23.33 180.41-23.6 180.91-23.6L180.91-23.6Q181.46-23.6 181.81-23.33 182.16-23.05 182.16-22.6L182.16-22.6 182.16-1.05Q182.16-0.65 181.81-0.33 181.46 0 180.91 0ZM180.91-31.05L180.91-31.05Q180.16-31.05 179.59-31.6 179.01-32.15 179.01-32.9L179.01-32.9Q179.01-33.65 179.59-34.15 180.16-34.65 180.91-34.65L180.91-34.65Q181.71-34.65 182.24-34.15 182.76-33.65 182.76-32.9L182.76-32.9Q182.76-32.15 182.24-31.6 181.71-31.05 180.91-31.05ZM229.63 0L229.63 0Q229.13 0 228.78-0.33 228.43-0.65 228.43-1.05L228.43-1.05 228.43-22.6Q228.43-23.05 228.78-23.33 229.13-23.6 229.63-23.6L229.63-23.6Q230.18-23.6 230.51-23.33 230.83-23.05 230.83-22.6L230.83-22.6 230.83-20.1Q231.68-21.55 233.36-22.73 235.03-23.9 237.53-23.9L237.53-23.9Q239.98-23.9 242.01-22.68 244.03-21.45 245.26-19.38 246.48-17.3 246.48-14.75L246.48-14.75 246.48-1.05Q246.48-0.55 246.11-0.28 245.73 0 245.23 0L245.23 0Q244.83 0 244.43-0.28 244.03-0.55 244.03-1.05L244.03-1.05 244.03-14.75Q244.03-16.5 243.11-18.05 242.18-19.6 240.68-20.6 239.18-21.6 237.33-21.6L237.33-21.6Q235.73-21.6 234.26-20.78 232.78-19.95 231.83-18.43 230.88-16.9 230.88-14.75L230.88-14.75 230.88-1.05Q230.88-0.65 230.53-0.33 230.18 0 229.63 0ZM302.05 0.3L302.05 0.3Q299 0.3 296.68-0.85 294.35-2 293-4.08 291.65-6.15 291.65-8.95L291.65-8.95 291.65-14.9Q291.65-17.35 292.93-19.4 294.2-21.45 296.28-22.68 298.35-23.9 300.85-23.9L300.85-23.9Q303.3-23.9 305.35-22.73 307.4-21.55 308.68-19.53 309.95-17.5 309.95-14.85L309.95-14.85Q309.95-13 309.33-12.18 308.7-11.35 307.75-11.18 306.8-11 305.7-11L305.7-11 294.1-11 294.1-8.9Q294.1-5.7 296.4-3.83 298.7-1.95 302.15-1.95L302.15-1.95Q304.2-1.95 305.3-2.45 306.4-2.95 307-3.45 307.6-3.95 308.1-3.95L308.1-3.95Q308.45-3.95 308.7-3.75 308.95-3.55 309.1-3.28 309.25-3 309.25-2.75L309.25-2.75Q309.25-2.25 308.38-1.5 307.5-0.75 305.9-0.23 304.3 0.3 302.05 0.3ZM294.1-15.1L294.1-13.05 304.75-13.05Q306.45-13.05 307-13.4 307.55-13.75 307.55-14.85L307.55-14.85Q307.55-16.55 306.73-18.13 305.9-19.7 304.38-20.7 302.85-21.7 300.85-21.7L300.85-21.7Q298.95-21.7 297.43-20.8 295.9-19.9 295-18.4 294.1-16.9 294.1-15.1L294.1-15.1Z" opacity="1" transform="matrix(1,0,0,1,0,0)" fill="#ee3e38" class="undefined-text-1" data-fill-palette-color="secondary" id="text-1"></path></svg></g></svg></g></svg></g></svg></g></svg></g></svg></g></svg></g><g><path d="M0 123.6c0-68.262 55.338-123.6 123.6-123.6 49.738 0 92.614 29.379 112.222 71.73h-2.472c-19.449-41.079-61.282-69.492-109.75-69.492-67.026 0-121.362 54.336-121.362 121.362 0 67.026 54.336 121.362 121.362 121.362 48.469 0 90.302-28.413 109.75-69.492l2.472 0c-19.608 42.351-62.484 71.73-112.222 71.73-68.262 0-123.6-55.338-123.6-123.6z" fill="#ee3e38" stroke="transparent" data-fill-palette-color="tertiary"></path></g></svg></g><defs></defs></svg><rect width="395.52" height="247.2" fill="none" stroke="none" visibility="hidden"></rect></g></svg></g></svg>