<svg width="18" height="23" viewBox="0 0 18 23" fill="none" xmlns="http://www.w3.org/2000/svg">
<path d="M15.0938 23H2.15625C0.967928 23 0 22.0332 0 20.8438V10.7813C0 9.59187 0.967928 8.625 2.15625 8.625H15.0938C16.2821 8.625 17.25 9.59187 17.25 10.7813V20.8438C17.25 22.0332 16.2821 23 15.0938 23ZM2.15625 10.0625C1.76038 10.0625 1.4375 10.3845 1.4375 10.7813V20.8438C1.4375 21.2405 1.76038 21.5625 2.15625 21.5625H15.0938C15.4897 21.5625 15.8125 21.2405 15.8125 20.8438V10.7813C15.8125 10.3845 15.4897 10.0625 15.0938 10.0625H2.15625Z" fill="#868889"/>
<path d="M13.6563 10.0625C13.2595 10.0625 12.9375 9.74052 12.9375 9.34377V5.75001C12.9375 3.37231 11.0027 1.4375 8.62501 1.4375C6.24731 1.4375 4.3125 3.37231 4.3125 5.75001V9.34377C4.3125 9.74052 3.9905 10.0625 3.59375 10.0625C3.197 10.0625 2.875 9.74052 2.875 9.34377V5.75001C2.875 2.5788 5.4538 0 8.62501 0C11.7962 0 14.375 2.5788 14.375 5.75001V9.34377C14.375 9.74052 14.053 10.0625 13.6563 10.0625Z" fill="#868889"/>
</svg>
