<svg width="23" height="23" viewBox="0 0 23 23" fill="none" xmlns="http://www.w3.org/2000/svg">
<g clip-path="url(#clip0_10_413)">
<path d="M4.64325 15.2889C6.91179 18.0006 9.64263 20.1357 12.7595 21.6465C13.9462 22.2089 15.5332 22.8761 17.3014 22.9905C17.411 22.9952 17.5158 23 17.6254 23C18.8121 23 19.7653 22.5901 20.5421 21.7466C20.5469 21.7418 20.5564 21.7323 20.5612 21.7227C20.8376 21.3891 21.1522 21.0889 21.481 20.7696C21.705 20.5551 21.9338 20.3311 22.153 20.1024C23.1681 19.0443 23.1681 17.7004 22.1435 16.6757L19.2792 13.8114C18.7931 13.3063 18.2116 13.0394 17.6016 13.0394C16.9916 13.0394 16.4054 13.3063 15.905 13.8067L14.1988 15.5128C14.0415 15.4223 13.8795 15.3413 13.727 15.265C13.5363 15.1697 13.36 15.0792 13.2027 14.9791C11.6491 13.9925 10.2384 12.7058 8.88962 11.052C8.20811 10.1894 7.75059 9.46498 7.43127 8.72627C7.87926 8.32118 8.29866 7.89702 8.70376 7.48239C8.84673 7.33465 8.99447 7.1869 9.14221 7.03916C9.65693 6.52445 9.93335 5.92872 9.93335 5.32346C9.93335 4.71819 9.66169 4.12246 9.14221 3.60775L7.72199 2.18753C7.55518 2.02072 7.39791 1.85868 7.23587 1.69188C6.92133 1.3678 6.59248 1.03419 6.2684 0.733941C5.77752 0.25259 5.20085 0 4.59082 0C3.98556 0 3.40413 0.25259 2.89418 0.738707L1.11175 2.52114C0.463593 3.16929 0.0966225 3.95566 0.0203688 4.86593C-0.0701824 6.00497 0.139515 7.2155 0.682823 8.67862C1.51685 10.9424 2.77503 13.0441 4.64325 15.2889ZM1.18324 4.96602C1.24043 4.33216 1.48349 3.80315 1.94101 3.34563L3.71391 1.57273C3.99033 1.30584 4.29534 1.16763 4.59082 1.16763C4.88154 1.16763 5.17702 1.30584 5.44868 1.58226C5.76799 1.87775 6.06824 2.18753 6.39232 2.51637C6.55436 2.68317 6.72116 2.84998 6.88796 3.02155L8.30819 4.44177C8.60367 4.73726 8.75618 5.03751 8.75618 5.33299C8.75618 5.62847 8.60367 5.92872 8.30819 6.2242C8.16045 6.37194 8.01271 6.52445 7.86496 6.67219C7.42174 7.12018 7.00711 7.54434 6.54959 7.94944C6.54006 7.95897 6.53529 7.96374 6.52576 7.97327C6.13019 8.36884 6.19215 8.74534 6.28747 9.03129C6.29223 9.04559 6.297 9.05512 6.30177 9.06942C6.66874 9.9511 7.17868 10.7899 7.97458 11.7907C9.40434 13.5541 10.9103 14.9219 12.5689 15.9751C12.7738 16.1086 12.993 16.2134 13.198 16.3183C13.3886 16.4136 13.5649 16.5041 13.7222 16.6042C13.7413 16.6138 13.7556 16.6233 13.7746 16.6328C13.9319 16.7138 14.0844 16.752 14.2369 16.752C14.6182 16.752 14.866 16.5089 14.947 16.4279L16.7295 14.6455C17.0059 14.369 17.3061 14.2213 17.6016 14.2213C17.9638 14.2213 18.2593 14.4453 18.4452 14.6455L21.319 17.5145C21.8909 18.0864 21.8861 18.706 21.3047 19.3112C21.1045 19.5257 20.8948 19.7306 20.6708 19.9451C20.3372 20.2692 19.9893 20.6028 19.6748 20.9793C19.1267 21.5702 18.4738 21.8467 17.6302 21.8467C17.5492 21.8467 17.4634 21.8419 17.3824 21.8371C15.8192 21.737 14.3656 21.127 13.2742 20.6075C10.3098 19.173 7.70769 17.138 5.54876 14.5549C3.7711 12.415 2.57487 10.4229 1.78373 8.28782C1.29285 6.97721 1.10698 5.92395 1.18324 4.96602Z" fill="#868889"/>
</g>
<defs>
<clipPath id="clip0_10_413">
<rect width="23" height="23" fill="white"/>
</clipPath>
</defs>
</svg>
