<svg width="19" height="17" viewBox="0 0 19 17" fill="none" xmlns="http://www.w3.org/2000/svg">
<path d="M17.8599 1.54993H6.78618C6.48174 0.650108 5.62647 0 4.62089 0C3.61531 0 2.76004 0.650108 2.45559 1.54993H0.727065C0.325531 1.54993 0 1.87387 0 2.27345C0 2.67302 0.325531 2.99697 0.727065 2.99697H2.45564C2.76008 3.89679 3.61536 4.5469 4.62093 4.5469C5.62651 4.5469 6.48178 3.89679 6.78623 2.99697H17.86C18.2615 2.99697 18.587 2.67302 18.587 2.27345C18.587 1.87387 18.2615 1.54993 17.8599 1.54993ZM4.62089 3.09985C4.16298 3.09985 3.79043 2.72912 3.79043 2.27345C3.79043 1.81777 4.16298 1.44704 4.62089 1.44704C5.07879 1.44704 5.45134 1.81777 5.45134 2.27345C5.45134 2.72912 5.07879 3.09985 4.62089 3.09985Z" fill="#868889"/>
<path d="M17.8599 7.75012H16.1313C15.8269 6.8503 14.9716 6.2002 13.966 6.2002C12.9605 6.2002 12.1052 6.8503 11.8008 7.75012H0.727065C0.325531 7.75012 0 8.07407 0 8.47364C0 8.87322 0.325531 9.19716 0.727065 9.19716H11.8008C12.1052 10.097 12.9606 10.7471 13.9661 10.7471C14.9716 10.7471 15.8269 10.097 16.1314 9.19716H17.86C18.2615 9.19716 18.587 8.87322 18.587 8.47364C18.587 8.07407 18.2615 7.75012 17.8599 7.75012ZM13.9661 9.30005C13.5082 9.30005 13.1356 8.92932 13.1356 8.47364C13.1356 8.01797 13.5082 7.64724 13.9661 7.64724C14.424 7.64724 14.7965 8.01797 14.7965 8.47364C14.7965 8.92932 14.424 9.30005 13.9661 9.30005Z" fill="#868889"/>
<path d="M17.8599 13.9493H9.90127C9.59682 13.0495 8.74155 12.3994 7.73597 12.3994C6.73039 12.3994 5.87512 13.0495 5.57068 13.9493H0.727065C0.325531 13.9493 0 14.2733 0 14.6729C0 15.0724 0.325531 15.3964 0.727065 15.3964H5.57068C5.87512 16.2962 6.73039 16.9463 7.73597 16.9463C8.74155 16.9463 9.59682 16.2962 9.90127 15.3964H17.86C18.2615 15.3964 18.587 15.0724 18.587 14.6729C18.587 14.2733 18.2615 13.9493 17.8599 13.9493ZM7.73597 15.4993C7.27807 15.4993 6.90552 15.1286 6.90552 14.6729C6.90552 14.2172 7.27807 13.8465 7.73597 13.8465C8.19388 13.8465 8.56643 14.2172 8.56643 14.6729C8.56643 15.1285 8.19388 15.4993 7.73597 15.4993Z" fill="#868889"/>
</svg>
